<svg width="300" height="300" viewBox="0 0 300 300" fill="none" xmlns="http://www.w3.org/2000/svg">
    <path d="M0 150C0 232.843 67.1573 300 150 300C232.843 300 300 232.843 300 150C300 67.1573 232.843 0 150 0C67.1573 0 0 67.1573 0 150Z" fill="url(#paint0_linear_126_2)"/>
    <path d="M115.865 225.906H115.859C93.4315 225.906 72.4487 219.702 54.5482 208.92L54.5424 208.917C54.1013 208.652 53.7348 208.28 53.4774 207.834C53.2225 207.393 53.0829 206.895 53.0716 206.385C53.0714 206.381 53.0714 206.376 53.0713 206.371L53.0625 205.297C53.0625 205.292 53.0625 205.286 53.0625 205.281C53.0668 188.632 59.6824 172.666 71.4553 160.893C83.232 149.116 99.2046 142.5 115.859 142.5C132.514 142.5 148.487 149.116 160.263 160.893C172.04 172.669 178.656 188.642 178.656 205.297V205.325L178.647 206.374C178.647 206.378 178.647 206.383 178.647 206.387C178.637 206.896 178.498 207.395 178.243 207.837C177.986 208.282 177.621 208.655 177.18 208.92L179.244 212.347L177.18 208.92C158.672 220.066 137.47 225.939 115.865 225.906ZM200.719 205.353L200.723 204.69L200.708 204.644C200.609 188.301 195.773 172.371 186.835 158.765C192.086 156.983 197.655 156.261 203.218 156.66C210.381 157.173 217.29 159.528 223.277 163.495C229.263 167.463 234.123 172.909 237.386 179.306C240.649 185.703 242.206 192.835 241.904 200.01L241.903 200.014C241.881 200.56 241.711 201.09 241.413 201.547C241.114 202.004 240.697 202.373 240.206 202.613L240.202 202.614C227.698 208.742 213.972 211.893 200.095 211.854C200.473 210.181 200.68 208.468 200.709 206.742L200.709 206.722L200.709 206.703L200.719 205.353ZM81.1875 85.7656C81.1875 76.5701 84.8404 67.7511 91.3427 61.2489C97.8449 54.7467 106.664 51.0938 115.859 51.0938C125.055 51.0938 133.874 54.7467 140.376 61.2489C146.878 67.7511 150.531 76.5701 150.531 85.7656C150.531 94.9612 146.878 103.78 140.376 110.282C133.874 116.785 125.055 120.438 115.859 120.438C106.664 120.438 97.8449 116.785 91.3427 110.282C84.8404 103.78 81.1875 94.9612 81.1875 85.7656ZM172.594 106.859C172.594 103.23 173.309 99.6353 174.698 96.2818C176.087 92.9282 178.123 89.8812 180.689 87.3145C183.256 84.7478 186.303 82.7118 189.657 81.3228C193.01 79.9337 196.605 79.2188 200.234 79.2188C203.864 79.2188 207.458 79.9337 210.812 81.3228C214.166 82.7118 217.213 84.7478 219.779 87.3145C222.346 89.8812 224.382 92.9282 225.771 96.2818C227.16 99.6353 227.875 103.23 227.875 106.859C227.875 114.19 224.963 121.221 219.779 126.404C214.596 131.588 207.565 134.5 200.234 134.5C192.904 134.5 185.873 131.588 180.689 126.404C175.506 121.221 172.594 114.19 172.594 106.859Z" fill="#4CBD17" stroke="#122E04" stroke-width="8"/>
    <path d="M198.102 166.939L197.041 165.879L195.981 166.939L187.001 175.919L185.94 176.979L187.001 178.04L204.96 195.999L206.021 197.059L207.081 195.999L216.061 187.019L217.121 185.959L216.061 184.898L198.102 166.939Z" fill="#EF8A17" stroke="white" stroke-width="3"/>
    <path d="M161.722 206.415V204.915H160.222H147.523H146.023V206.415V231.812V233.312H147.523H160.222H161.722V231.812V206.415Z" fill="#EF8A17" stroke="white" stroke-width="3"/>
    <path d="M182.511 261.222L183.521 262.233L182.511 261.222C165.74 277.994 138.549 277.994 121.777 261.222L120.86 262.14L121.777 261.222C105.006 244.452 105.006 217.26 121.777 200.488C138.549 183.717 165.74 183.717 182.511 200.488L183.471 199.529L182.511 200.488C199.283 217.26 199.283 244.452 182.511 261.222ZM193.613 189.388L192.568 190.432L193.612 189.388C170.71 166.486 133.579 166.486 110.677 189.388C87.7745 212.29 87.7745 249.421 110.677 272.323C133.579 295.226 170.71 295.226 193.613 272.323C216.514 249.421 216.514 212.29 193.613 189.388Z" fill="#EF8A17" stroke="white" stroke-width="3"/>
    <defs>
        <linearGradient id="paint0_linear_126_2" x1="150" y1="0" x2="150" y2="300" gradientUnits="userSpaceOnUse">
            <stop stop-color="#4CBD17"/>
            <stop offset="1" stop-color="#122E04"/>
        </linearGradient>
    </defs>
</svg>
