<svg width="60" height="60" viewBox="0 0 60 60" fill="none" xmlns="http://www.w3.org/2000/svg">
    <path fill-rule="evenodd" clip-rule="evenodd" d="M12.5 20C12.5 17.9289 14.1789 16.25 16.25 16.25H43.75C45.8211 16.25 47.5 17.9289 47.5 20V40C47.5 42.0711 45.8211 43.75 43.75 43.75H16.25C14.1789 43.75 12.5 42.0711 12.5 40V20ZM15 36.7678V40C15 40.6904 15.5596 41.25 16.25 41.25H43.75C44.4404 41.25 45 40.6904 45 40V36.7678L40.5178 32.2855C39.5415 31.3092 37.9585 31.3092 36.9822 32.2855L35.5178 33.75L37.1339 35.3661C37.622 35.8543 37.622 36.6457 37.1339 37.1339C36.6457 37.622 35.8543 37.622 35.3661 37.1339L26.7678 28.5355C25.7915 27.5592 24.2085 27.5592 23.2322 28.5355L15 36.7678ZM31.875 23.75C31.875 22.7145 32.7145 21.875 33.75 21.875C34.7855 21.875 35.625 22.7145 35.625 23.75C35.625 24.7855 34.7855 25.625 33.75 25.625C32.7145 25.625 31.875 24.7855 31.875 23.75Z" fill="#565656"/>
    <path fill-rule="evenodd" clip-rule="evenodd" d="M16.8012 14.1496L45.8504 43.1988C52.6138 35.0957 52.1917 23.0236 44.5841 15.4159C36.9764 7.80828 24.9043 7.38616 16.8012 14.1496ZM43.1988 45.8504L14.1496 16.8012C7.38616 24.9043 7.80828 36.9764 15.4159 44.5841C23.0236 52.1917 35.0957 52.6138 43.1988 45.8504ZM12.7643 12.7643C22.2833 3.24524 37.7167 3.24524 47.2357 12.7643C56.7548 22.2833 56.7548 37.7167 47.2357 47.2357C37.7167 56.7548 22.2833 56.7548 12.7643 47.2357C3.24524 37.7167 3.24524 22.2833 12.7643 12.7643Z" fill="#BD1717"/>
</svg>