<svg width="260" height="152" viewBox="0 0 260 152" fill="none" xmlns="http://www.w3.org/2000/svg">
    <path d="M259.117 111.065L63.3377 1H1L259.117 151V111.065Z" fill="#FCD23D" stroke="#FCD23D" stroke-linejoin="round"/>
    <path d="M94.7401 45.0884C94.1537 44.7499 94.0192 44.3057 94.3366 43.756L102.487 29.6391C102.804 29.0894 103.256 28.9838 103.843 29.3224L107.581 31.4806C110.395 33.1056 112.093 34.5498 112.673 35.8131C113.265 37.0734 113.146 38.4218 112.316 39.8585C111.737 40.8626 110.918 41.4259 109.86 41.5482C108.81 41.6747 107.915 41.5831 107.175 41.2732L107.156 41.3062C107.798 41.7353 108.387 42.5253 108.925 43.6761C109.462 44.827 109.399 45.9778 108.735 47.1285C107.956 48.4772 106.776 49.2519 105.194 49.4527C103.612 49.6535 101.557 49.024 99.0279 47.564L94.7401 45.0884ZM98.6197 43.7515L100.225 44.6782C101.779 45.5754 102.913 46.0491 103.626 46.0996C104.347 46.1542 104.947 45.7674 105.425 44.9392C105.873 44.1622 105.856 43.4388 105.373 42.769C104.902 42.0961 103.977 41.3619 102.599 40.5663L100.994 39.6395L98.6197 43.7515ZM102.492 37.0449L103.932 37.8764C104.878 38.4223 105.856 38.7673 106.867 38.9114C107.886 39.0598 108.596 38.7858 108.998 38.0895C109.312 37.5471 109.318 37.0033 109.017 36.4582C108.727 35.91 107.743 35.1513 106.065 34.1823L104.625 33.3507L102.492 37.0449ZM111.486 47.0605C112.556 45.2061 113.863 44.0104 115.404 43.4735C116.953 42.9408 118.574 43.1632 120.267 44.1408C122.231 45.2749 123.398 46.6227 123.766 48.1844C124.135 49.746 123.672 51.6482 122.377 53.8911C122.123 54.3309 121.791 54.4323 121.381 54.1953L114.124 50.0058C113.539 51.2903 113.398 52.2297 113.699 52.8242C114.001 53.4187 114.471 53.9 115.109 54.2681C115.717 54.6194 116.229 54.8075 116.645 54.8324C117.06 54.8574 117.458 54.794 117.839 54.6425C118.274 54.4639 118.612 54.5903 118.851 55.0218L119.564 56.3272C119.844 56.8407 119.724 57.1919 119.205 57.3806C118.449 57.6575 117.694 57.7544 116.941 57.6713C116.187 57.5882 115.162 57.1721 113.864 56.4231C111.761 55.2085 110.571 53.8081 110.294 52.2217C110.018 50.6353 110.415 48.9149 111.486 47.0605ZM115.405 47.8133L120.188 50.5745C120.645 49.7829 120.819 49.0237 120.711 48.2967C120.607 47.5625 120.123 46.9457 119.258 46.4463C118.569 46.0485 117.883 45.9751 117.201 46.2261C116.523 46.4698 115.924 46.9989 115.405 47.8133ZM121.89 59.7373C121.679 59.2734 121.739 58.9414 122.069 58.7413L123.22 58.0425C123.63 57.7903 123.963 57.9241 124.22 58.4438C124.477 58.9635 124.85 59.4523 125.338 59.9101C125.833 60.3721 126.316 60.7385 126.785 61.0094C127.115 61.1998 127.441 61.3445 127.765 61.4436C128.089 61.5427 128.405 61.5541 128.713 61.4777C129.021 61.4014 129.281 61.18 129.492 60.8136C129.619 60.5937 129.669 60.3729 129.64 60.1513C129.612 59.9296 129.529 59.7256 129.393 59.5392C129.256 59.3528 129.1 59.1747 128.924 59.0049C128.691 58.7823 128.362 58.446 127.938 57.9958C127.521 57.5499 127.138 57.0889 126.787 56.6129C126.496 56.22 126.25 55.7654 126.05 55.2491C125.861 54.7296 125.787 54.2322 125.827 53.7569C125.874 53.2857 126.056 52.7753 126.373 52.2256C126.801 51.4853 127.388 50.9593 128.135 50.6477C128.889 50.3403 129.668 50.2771 130.472 50.4581C131.277 50.6391 132.188 51.0237 133.207 51.6119C133.896 52.0097 134.51 52.4959 135.048 53.0704C135.586 53.6449 135.943 54.1006 136.12 54.4373C136.399 54.9697 136.338 55.33 135.936 55.5183L134.7 56.1096C134.326 56.2843 133.983 56.1158 133.673 55.6042C133.438 55.2148 133.186 54.8641 132.917 54.5521C132.655 54.2444 132.318 53.9721 131.908 53.7351C131.629 53.5743 131.345 53.4492 131.055 53.3597C130.764 53.2702 130.481 53.2532 130.205 53.3087C129.936 53.3684 129.725 53.5301 129.573 53.794C129.412 54.0725 129.365 54.339 129.434 54.5933C129.513 54.8446 129.638 55.0682 129.808 55.2642C129.986 55.4645 130.155 55.6547 130.315 55.8349C130.649 56.2039 130.989 56.5712 131.335 56.937C131.685 57.2955 132.027 57.6839 132.363 58.1021C132.652 58.4646 132.894 58.8829 133.089 59.3572C133.284 59.8316 133.342 60.3242 133.262 60.8351C133.182 61.346 132.988 61.8689 132.679 62.404C132.268 63.115 131.675 63.6519 130.899 64.0148C130.122 64.3777 129.312 64.4865 128.467 64.341C127.623 64.1955 126.739 63.8562 125.815 63.323C124.782 62.7263 123.945 62.1452 123.304 61.5796C122.663 61.0141 122.191 60.4 121.89 59.7373ZM137.748 57.4585C137.315 57.2088 137.205 56.9007 137.416 56.5342L138.051 55.4348C138.263 55.0683 138.585 55.0099 139.017 55.2596L139.765 55.6912L139.987 55.3064C140.177 54.9766 140.428 54.7205 140.738 54.5382L142.442 53.5427C142.764 53.3572 143.035 53.328 143.255 53.455L144.024 53.8993C144.464 54.1532 144.557 54.5 144.303 54.9398L142.843 57.4686L144.624 58.4969C145.057 58.7465 145.167 59.0546 144.956 59.4211L144.321 60.5206C144.109 60.887 143.787 60.9454 143.355 60.6958L141.574 59.6674L138.425 65.1207C137.994 65.8683 137.734 66.4367 137.646 66.8258C137.57 67.2117 137.755 67.5338 138.202 67.7919C138.43 67.9231 138.707 68.0346 139.035 68.1263C139.368 68.2107 139.636 68.2628 139.839 68.2826C140.164 68.3135 140.284 68.4951 140.199 68.8275L139.805 70.2713C139.727 70.5586 139.526 70.6868 139.202 70.656C138.897 70.6263 138.506 70.5327 138.03 70.3752C137.557 70.2293 137.109 70.0336 136.683 69.7882C135.635 69.183 134.866 68.4505 134.375 67.5907C133.885 66.7308 134.029 65.6265 134.807 64.2779L138.495 57.8901L137.748 57.4585ZM150.35 77.1949C149.764 76.8563 149.629 76.4122 149.947 75.8625L158.097 61.7456C158.414 61.1959 158.866 61.0903 159.453 61.4288L163.191 63.587C166.005 65.212 167.703 66.6562 168.283 67.9196C168.875 69.1798 168.756 70.5283 167.926 71.9649C167.347 72.9691 166.528 73.5323 165.47 73.6546C164.42 73.7812 163.525 73.6895 162.785 73.3797L162.766 73.4127C163.408 73.8417 163.997 74.6317 164.535 75.7826C165.072 76.9334 165.009 78.0842 164.345 79.235C163.566 80.5836 162.386 81.3584 160.804 81.5592C159.222 81.76 157.167 81.1304 154.638 79.6705L150.35 77.1949ZM154.23 75.8579L155.835 76.7847C157.389 77.6818 158.523 78.1556 159.236 78.206C159.957 78.2607 160.557 77.8739 161.035 77.0456C161.483 76.2687 161.466 75.5453 160.983 74.8755C160.512 74.2026 159.587 73.4683 158.209 72.6727L156.604 71.746L154.23 75.8579ZM158.102 69.1513L159.542 69.9828C160.488 70.5287 161.466 70.8738 162.477 71.0179C163.496 71.1662 164.206 70.8923 164.608 70.1959C164.922 69.6535 164.928 69.1098 164.627 68.5647C164.337 68.0164 163.353 67.2578 161.675 66.2887L160.235 65.4572L158.102 69.1513ZM167.125 80.4882L170.641 74.3973C170.895 73.9575 171.242 73.8645 171.682 74.1185L173.441 75.1341C173.881 75.388 173.974 75.7348 173.72 76.1746L170.66 81.4739C169.738 83.0718 169.266 84.1431 169.244 84.6878C169.223 85.2326 169.564 85.7081 170.268 86.1143C171.015 86.546 171.755 86.5771 172.486 86.2077C173.222 85.8309 174.133 84.7007 175.221 82.817L177.722 78.4852C177.976 78.0454 178.322 77.9524 178.762 78.2063L180.521 79.222C180.961 79.4759 181.054 79.8227 180.8 80.2625L174.897 90.4873C174.643 90.9271 174.296 91.0201 173.856 90.7662L172.119 89.7632C171.679 89.5093 171.586 89.1625 171.84 88.7227L172.208 88.085L172.165 88.0596C171.493 88.444 170.834 88.5959 170.186 88.5154C169.543 88.4275 168.866 88.1783 168.155 87.7678C167.034 87.1203 166.306 86.2216 165.974 85.0717C165.641 83.9217 166.024 82.3939 167.125 80.4882ZM180.223 86.746C181.154 85.1335 182.311 83.9345 183.693 83.1492C185.086 82.3607 186.644 82.4637 188.366 83.4581C189.026 83.839 189.535 84.2601 189.894 84.7215C190.254 85.1829 190.442 85.8388 190.459 86.6892L190.503 86.7146C190.643 86.4045 190.797 86.1029 190.967 85.8097L193.531 81.3679C193.785 80.9281 194.132 80.8352 194.572 81.0891L196.331 82.1047C196.771 82.3586 196.864 82.7055 196.61 83.1453L188.002 98.0538C187.748 98.4935 187.401 98.5865 186.962 98.3326L185.225 97.3296C184.858 97.118 184.787 96.7839 185.012 96.3272L185.336 95.6641L185.292 95.6387C184.547 96.049 183.885 96.214 183.306 96.1338C182.726 96.0535 182.107 95.823 181.447 95.4421C179.725 94.4476 178.855 93.1536 178.837 91.5599C178.83 89.9632 179.292 88.3585 180.223 86.746ZM183.478 88.6249C182.801 89.7977 182.411 90.8189 182.31 91.6888C182.22 92.5555 182.67 93.2745 183.659 93.8458C184.209 94.1632 184.856 94.1262 185.6 93.7347C186.355 93.3402 187.018 92.6482 187.59 91.6587L188.161 90.6692C188.732 89.6797 188.998 88.7629 188.957 87.9187C188.929 87.0714 188.639 86.489 188.09 86.1716C187.1 85.6004 186.251 85.574 185.541 86.0926C184.842 86.6081 184.155 87.4522 183.478 88.6249ZM193.329 94.3124C194.26 92.6999 195.416 91.501 196.798 90.7156C198.191 89.9271 199.749 90.0301 201.472 91.0245C202.131 91.4054 202.641 91.8265 203 92.2879C203.359 92.7493 203.547 93.4052 203.564 94.2556L203.608 94.281C203.748 93.9709 203.903 93.6693 204.072 93.3761L206.637 88.9343C206.89 88.4945 207.237 88.4016 207.677 88.6555L209.436 89.6711C209.876 89.9251 209.969 90.2719 209.715 90.7117L201.108 105.62C200.854 106.06 200.507 106.153 200.067 105.899L198.33 104.896C197.963 104.684 197.893 104.35 198.117 103.894L198.441 103.231L198.397 103.205C197.652 103.615 196.99 103.78 196.411 103.7C195.832 103.62 195.212 103.389 194.553 103.009C192.83 102.014 191.96 100.72 191.942 99.1263C191.935 97.5296 192.398 95.9249 193.329 94.3124ZM196.583 96.1913C195.906 97.3641 195.517 98.3854 195.415 99.2552C195.325 100.122 195.775 100.841 196.764 101.412C197.314 101.73 197.961 101.693 198.705 101.301C199.46 100.907 200.124 100.215 200.695 99.2251L201.266 98.2356C201.838 97.2461 202.103 96.3293 202.063 95.4851C202.034 94.6378 201.745 94.0554 201.195 93.7381C200.206 93.1668 199.356 93.1404 198.646 93.659C197.948 94.1745 197.26 95.0186 196.583 96.1913ZM209.173 96.9072C209.305 96.2212 209.591 96.0052 210.03 96.2591L211.998 97.3953C212.336 97.59 212.448 97.9038 212.334 98.3369L210.446 105.441C210.362 105.774 210.218 106.184 210.014 106.672C209.822 107.158 209.69 107.462 209.618 107.587L209.684 107.625C209.996 107.287 210.236 107.016 210.404 106.809C210.583 106.6 210.957 106.215 211.525 105.654L216.468 100.724C216.787 100.409 217.115 100.349 217.452 100.544L219.42 101.68C219.852 101.93 219.808 102.285 219.287 102.747L209.146 111.756C207.96 112.811 206.84 113.523 205.787 113.892C204.733 114.261 203.646 114.122 202.524 113.475C201.909 113.119 201.389 112.75 200.964 112.369C200.719 112.149 200.723 111.897 200.975 111.613L201.916 110.543C202.163 110.266 202.414 110.264 202.667 110.537C202.852 110.741 203.043 110.901 203.241 111.015C203.835 111.358 204.448 111.336 205.082 110.949C205.723 110.567 206.211 110.204 206.547 109.86L206.675 109.714L209.173 96.9072Z" fill="white"/>
</svg>
