
<svg width="260" height="152" viewBox="0 0 260 152" fill="none" xmlns="http://www.w3.org/2000/svg">
    <path d="M259.117 111.065L63.3377 1H1L259.117 151V111.065Z" fill="#666666" stroke="#666666" stroke-linejoin="round"/>
    <path d="M122.545 61.1416C121.959 60.8031 121.824 60.359 122.142 59.8092L130.292 45.6924C130.609 45.1426 131.061 45.037 131.648 45.3756L135.386 47.5338C138.2 49.1588 139.898 50.603 140.478 51.8663C141.07 53.1266 140.951 54.4751 140.121 55.9117C139.542 56.9158 138.723 57.4791 137.665 57.6014C136.615 57.7279 135.72 57.6363 134.98 57.3265L134.961 57.3594C135.603 57.7885 136.192 58.5785 136.73 59.7293C137.267 60.8802 137.204 62.031 136.54 63.1817C135.761 64.5304 134.581 65.3051 132.999 65.506C131.417 65.7068 129.362 65.0772 126.833 63.6172L122.545 61.1416ZM126.425 59.8047L128.03 60.7315C129.584 61.6286 130.718 62.1024 131.431 62.1528C132.152 62.2074 132.752 61.8206 133.23 60.9924C133.678 60.2154 133.661 59.4921 133.178 58.8223C132.707 58.1493 131.782 57.4151 130.404 56.6195L128.799 55.6928L126.425 59.8047ZM130.297 53.0981L131.737 53.9296C132.683 54.4755 133.661 54.8205 134.672 54.9647C135.691 55.113 136.401 54.839 136.803 54.1427C137.117 53.6003 137.123 53.0566 136.822 52.5114C136.532 51.9632 135.548 51.2046 133.87 50.2355L132.43 49.4039L130.297 53.0981ZM139.32 64.435L142.836 58.344C143.09 57.9043 143.437 57.8113 143.877 58.0652L145.636 59.0809C146.076 59.3348 146.169 59.6816 145.915 60.1214L142.855 65.4207C141.933 67.0186 141.461 68.0899 141.439 68.6346C141.418 69.1794 141.759 69.6549 142.463 70.0611C143.21 70.4928 143.95 70.5239 144.681 70.1544C145.417 69.7777 146.328 68.6475 147.416 66.7637L149.917 62.4319C150.171 61.9922 150.517 61.8992 150.957 62.1531L152.716 63.1687C153.156 63.4227 153.249 63.7695 152.995 64.2093L147.092 74.4341C146.838 74.8739 146.491 74.9668 146.051 74.7129L144.314 73.71C143.874 73.4561 143.781 73.1093 144.035 72.6695L144.403 72.0318L144.36 72.0064C143.688 72.3908 143.029 72.5427 142.381 72.4621C141.738 72.3742 141.061 72.125 140.35 71.7146C139.229 71.0671 138.502 70.1684 138.169 69.0185C137.836 67.8685 138.219 66.3407 139.32 64.435ZM152.418 70.6928C153.349 69.0803 154.506 67.8813 155.888 67.0959C157.281 66.3075 158.839 66.4104 160.561 67.4049C161.221 67.7858 161.73 68.2069 162.089 68.6683C162.449 69.1297 162.637 69.7856 162.654 70.636L162.698 70.6614C162.838 70.3513 162.992 70.0496 163.162 69.7565L165.726 65.3147C165.98 64.8749 166.327 64.782 166.767 65.0359L168.526 66.0515C168.966 66.3054 169.059 66.6523 168.805 67.092L160.197 82.0005C159.943 82.4403 159.596 82.5332 159.157 82.2793L157.42 81.2764C157.053 81.0648 156.982 80.7307 157.207 80.274L157.531 79.6109L157.487 79.5855C156.742 79.9958 156.08 80.1608 155.501 80.0806C154.921 80.0003 154.302 79.7697 153.642 79.3889C151.92 78.3944 151.05 77.1004 151.032 75.5067C151.025 73.9099 151.487 72.3053 152.418 70.6928ZM155.673 72.5717C154.996 73.7444 154.606 74.7657 154.505 75.6355C154.415 76.5023 154.865 77.2213 155.854 77.7926C156.404 78.1099 157.051 78.0729 157.795 77.6815C158.55 77.287 159.213 76.595 159.785 75.6055L160.356 74.616C160.927 73.6265 161.193 72.7097 161.152 71.8655C161.124 71.0181 160.834 70.4358 160.285 70.1184C159.295 69.5471 158.446 69.5208 157.736 70.0394C157.037 70.5548 156.35 71.399 155.673 72.5717ZM165.524 78.2592C166.455 76.6467 167.611 75.4477 168.993 74.6623C170.386 73.8739 171.944 73.9769 173.667 74.9713C174.326 75.3522 174.836 75.7733 175.195 76.2347C175.554 76.6961 175.742 77.352 175.759 78.2024L175.803 78.2278C175.943 77.9177 176.098 77.6161 176.267 77.3229L178.832 72.8811C179.085 72.4413 179.432 72.3484 179.872 72.6023L181.631 73.6179C182.071 73.8718 182.164 74.2187 181.91 74.6584L173.303 89.5669C173.049 90.0067 172.702 90.0997 172.262 89.8457L170.525 88.8428C170.158 88.6312 170.087 88.2971 170.312 87.8404L170.636 87.1773L170.592 87.1519C169.847 87.5622 169.185 87.7272 168.606 87.647C168.027 87.5667 167.407 87.3361 166.748 86.9553C165.025 85.9608 164.155 84.6668 164.137 83.0731C164.13 81.4764 164.593 79.8717 165.524 78.2592ZM168.778 80.1381C168.101 81.3108 167.712 82.3321 167.61 83.2019C167.52 84.0687 167.97 84.7877 168.959 85.359C169.509 85.6763 170.156 85.6393 170.9 85.2479C171.655 84.8534 172.319 84.1614 172.89 83.1719L173.461 82.1824C174.033 81.1929 174.298 80.2761 174.258 79.4319C174.229 78.5846 173.94 78.0022 173.39 77.6848C172.401 77.1135 171.551 77.0872 170.841 77.6058C170.143 78.1212 169.455 78.9654 168.778 80.1381ZM181.367 80.854C181.5 80.168 181.786 79.952 182.225 80.2059L184.193 81.3421C184.531 81.5367 184.643 81.8506 184.529 82.2837L182.641 89.3881C182.557 89.7205 182.413 90.1308 182.209 90.6191C182.017 91.1043 181.885 91.4092 181.813 91.5338L181.879 91.5719C182.191 91.2342 182.431 90.9623 182.599 90.7563C182.778 90.5471 183.152 90.1619 183.72 89.6007L188.663 84.6704C188.982 84.3558 189.31 84.2959 189.647 84.4905L191.615 85.6268C192.047 85.8764 192.003 86.2321 191.482 86.6938L181.341 95.703C180.155 96.758 179.035 97.47 177.982 97.8391C176.928 98.2081 175.841 98.0689 174.719 97.4214C174.104 97.066 173.584 96.6973 173.159 96.3154C172.914 96.0959 172.918 95.844 173.17 95.5596L174.111 94.4898C174.358 94.2127 174.609 94.2107 174.862 94.4837C175.047 94.6882 175.238 94.8476 175.436 94.9618C176.03 95.3046 176.643 95.2827 177.277 94.896C177.918 94.5136 178.406 94.1504 178.742 93.8066L178.87 93.6607L181.367 80.854Z" fill="white"/>
</svg>
