<svg width="260" height="152" viewBox="0 0 260 152" fill="none" xmlns="http://www.w3.org/2000/svg">
<path d="M259.117 111.065L63.3377 1H1L259.117 151V111.065Z" fill="#4CBD17" stroke="#4CBD17" stroke-linejoin="round"/>
<path d="M93.4643 33.8411C94.9243 31.3124 96.7434 29.6849 98.9218 28.9587C101.1 28.2325 103.399 28.5677 105.818 29.9642C107.276 30.8063 108.312 31.6534 108.924 32.5054C109.544 33.3616 109.943 34.3638 110.12 35.512C110.226 36.2085 110.001 36.5723 109.446 36.6034L107.723 36.6934C107.217 36.7237 106.886 36.391 106.731 35.6953C106.602 35.1226 106.346 34.5593 105.962 34.0054C105.578 33.4515 105.067 32.9905 104.429 32.6223C102.89 31.7337 101.513 31.5884 100.298 32.1867C99.087 32.7775 97.9525 33.9892 96.8946 35.8216C95.8366 37.654 95.3524 39.246 95.4419 40.5974C95.5357 41.9416 96.3522 43.058 97.8914 43.9466C98.639 44.3783 99.3263 44.6774 99.9534 44.8439C100.585 45.0032 101.256 45.0245 101.969 44.908L103.105 42.94L100.719 41.5626C100.169 41.2452 100.032 40.8483 100.307 40.3719L101.056 39.0745C101.331 38.5981 101.744 38.5186 102.293 38.8359L107.065 41.5908C107.615 41.9082 107.752 42.3051 107.477 42.7815L104.252 48.3667C102.79 48.5292 101.448 48.4582 100.227 48.1536C99.0125 47.8532 97.698 47.2946 96.2834 46.4779C93.9013 45.1025 92.4691 43.2837 91.9868 41.0214C91.5118 38.7633 92.0043 36.3699 93.4643 33.8411ZM108.737 45.4736C109.816 43.6045 111.143 42.4157 112.717 41.9073C114.298 41.4031 116.041 41.7011 117.947 42.8014C119.853 43.9017 120.979 45.2604 121.325 46.8775C121.679 48.4989 121.317 50.2441 120.237 52.1132C119.158 53.9823 117.828 55.1689 116.247 55.6731C114.673 56.1815 112.934 55.8856 111.028 54.7854C109.122 53.6851 107.992 52.3243 107.638 50.7029C107.292 49.0857 107.658 47.3426 108.737 45.4736ZM111.992 47.3525C111.188 48.7451 110.829 49.8573 110.915 50.6891C111.014 51.5178 111.466 52.165 112.272 52.6304C113.078 53.0959 113.861 53.1619 114.621 52.8283C115.392 52.4916 116.179 51.6269 116.983 50.2343C117.787 48.8417 118.14 47.731 118.042 46.9023C117.955 46.0705 117.509 45.4218 116.703 44.9563C115.896 44.4908 115.108 44.4264 114.337 44.7631C113.577 45.0967 112.796 45.9598 111.992 47.3525ZM121.997 53.1288C123.076 51.2598 124.402 50.071 125.976 49.5626C127.557 49.0584 129.3 49.3564 131.206 50.4567C133.112 51.5569 134.238 52.9156 134.585 54.5328C134.938 56.1542 134.576 57.8994 133.497 59.7685C132.418 61.6375 131.088 62.8242 129.506 63.3284C127.933 63.8368 126.193 63.5409 124.287 62.4406C122.381 61.3404 121.252 59.9795 120.898 58.3582C120.551 56.741 120.917 54.9979 121.997 53.1288ZM125.251 55.0077C124.447 56.4004 124.088 57.5126 124.175 58.3444C124.273 59.1731 124.725 59.8202 125.531 60.2857C126.338 60.7512 127.12 60.8172 127.88 60.4836C128.651 60.1469 129.438 59.2822 130.242 57.8896C131.046 56.4969 131.399 55.3863 131.301 54.5575C131.215 53.7257 130.768 53.0771 129.962 52.6116C129.156 52.1461 128.367 52.0817 127.596 52.4184C126.837 52.752 126.055 53.6151 125.251 55.0077ZM135.256 60.7841C136.187 59.1716 137.343 57.9726 138.725 57.1872C140.119 56.3988 141.677 56.5018 143.399 57.4962C144.059 57.8771 144.568 58.2982 144.927 58.7596C145.286 59.221 145.474 59.8769 145.492 60.7273L145.536 60.7527C145.675 60.4426 145.83 60.141 145.999 59.8478L148.564 55.406C148.818 54.9662 149.165 54.8733 149.604 55.1272L151.363 56.1428C151.803 56.3967 151.896 56.7436 151.642 57.1833L143.035 72.0918C142.781 72.5316 142.434 72.6246 141.994 72.3706L140.257 71.3677C139.891 71.1561 139.82 70.822 140.044 70.3653L140.369 69.7022L140.325 69.6768C139.579 70.0871 138.917 70.2521 138.338 70.1719C137.759 70.0916 137.14 69.861 136.48 69.4802C134.758 68.4857 133.887 67.1917 133.869 65.598C133.863 64.0013 134.325 62.3966 135.256 60.7841ZM138.51 62.663C137.833 63.8358 137.444 64.857 137.342 65.7269C137.252 66.5936 137.702 67.3126 138.692 67.8839C139.241 68.2012 139.888 68.1642 140.632 67.7728C141.388 67.3783 142.051 66.6863 142.622 65.6968L143.194 64.7073C143.765 63.7178 144.03 62.801 143.99 61.9568C143.961 61.1095 143.672 60.5271 143.122 60.2097C142.133 59.6384 141.283 59.6121 140.573 60.1307C139.875 60.6462 139.187 61.4903 138.51 62.663ZM154.484 79.5816C153.898 79.243 153.763 78.7989 154.081 78.2492L162.231 64.1323C162.548 63.5826 163 63.477 163.587 63.8155L167.325 65.9737C170.139 67.5987 171.837 69.0429 172.417 70.3063C173.008 71.5666 172.89 72.915 172.06 74.3516C171.48 75.3558 170.662 75.919 169.604 76.0413C168.554 76.1679 167.659 76.0762 166.919 75.7664L166.9 75.7994C167.541 76.2285 168.131 77.0184 168.669 78.1693C169.206 79.3201 169.143 80.4709 168.479 81.6217C167.7 82.9703 166.52 83.7451 164.938 83.9459C163.356 84.1467 161.301 83.5171 158.772 82.0572L154.484 79.5816ZM158.364 78.2446L159.969 79.1714C161.523 80.0685 162.656 80.5423 163.37 80.5927C164.091 80.6474 164.691 80.2606 165.169 79.4323C165.617 78.6554 165.6 77.932 165.117 77.2622C164.646 76.5893 163.721 75.855 162.343 75.0595L160.738 74.1327L158.364 78.2446ZM162.236 71.538L163.676 72.3696C164.622 72.9155 165.6 73.2605 166.611 73.4046C167.63 73.553 168.34 73.279 168.742 72.5827C169.056 72.0403 169.062 71.4965 168.761 70.9514C168.471 70.4031 167.487 69.6445 165.809 68.6754L164.369 67.8439L162.236 71.538ZM171.259 82.8749L174.775 76.784C175.029 76.3442 175.376 76.2513 175.816 76.5052L177.575 77.5208C178.015 77.7747 178.107 78.1215 177.854 78.5613L174.794 83.8607C173.871 85.4585 173.4 86.5298 173.378 87.0746C173.357 87.6193 173.698 88.0948 174.402 88.5011C175.149 88.9327 175.889 88.9638 176.62 88.5944C177.356 88.2176 178.267 87.0874 179.355 85.2037L181.856 80.8719C182.109 80.4321 182.456 80.3392 182.896 80.5931L184.655 81.6087C185.095 81.8626 185.188 82.2094 184.934 82.6492L179.031 92.8741C178.777 93.3138 178.43 93.4068 177.99 93.1529L176.253 92.1499C175.813 91.896 175.72 91.5492 175.974 91.1094L176.342 90.4717L176.298 90.4463C175.627 90.8307 174.968 90.9826 174.32 90.9021C173.677 90.8142 173 90.565 172.289 90.1545C171.168 89.507 170.44 88.6083 170.108 87.4584C169.775 86.3084 170.158 84.7806 171.259 82.8749ZM184.357 89.1327C185.288 87.5202 186.445 86.3213 187.826 85.5359C189.22 84.7474 190.778 84.8504 192.5 85.8449C193.16 86.2257 193.669 86.6468 194.028 87.1083C194.387 87.5697 194.576 88.2256 194.593 89.076L194.637 89.1014C194.777 88.7912 194.931 88.4896 195.101 88.1964L197.665 83.7546C197.919 83.3149 198.266 83.2219 198.706 83.4758L200.465 84.4915C200.904 84.7454 200.997 85.0922 200.744 85.532L192.136 100.44C191.882 100.88 191.535 100.973 191.096 100.719L189.358 99.7164C188.992 99.5048 188.921 99.1706 189.146 98.7139L189.47 98.0508L189.426 98.0255C188.681 98.4358 188.019 98.6008 187.44 98.5205C186.86 98.4402 186.241 98.2097 185.581 97.8288C183.859 96.8344 182.989 95.5403 182.97 93.9466C182.964 92.3499 183.426 90.7453 184.357 89.1327ZM187.612 91.0116C186.934 92.1844 186.545 93.2057 186.444 94.0755C186.354 94.9422 186.803 95.6612 187.793 96.2325C188.343 96.5499 188.99 96.5129 189.733 96.1215C190.489 95.727 191.152 95.035 191.724 94.0455L192.295 93.056C192.866 92.0665 193.132 91.1496 193.091 90.3054C193.063 89.4581 192.773 88.8757 192.224 88.5584C191.234 87.9871 190.384 87.9607 189.675 88.4793C188.976 88.9948 188.289 89.8389 187.612 91.0116ZM197.463 96.6991C198.394 95.0866 199.55 93.8877 200.932 93.1023C202.325 92.3138 203.883 92.4168 205.606 93.4113C206.265 93.7921 206.775 94.2133 207.134 94.6747C207.493 95.1361 207.681 95.792 207.698 96.6424L207.742 96.6678C207.882 96.3576 208.037 96.056 208.206 95.7628L210.77 91.321C211.024 90.8813 211.371 90.7883 211.811 91.0422L213.57 92.0579C214.01 92.3118 214.103 92.6586 213.849 93.0984L205.242 108.007C204.988 108.447 204.641 108.54 204.201 108.286L202.464 107.283C202.097 107.071 202.026 106.737 202.251 106.28L202.575 105.617L202.531 105.592C201.786 106.002 201.124 106.167 200.545 106.087C199.966 106.007 199.346 105.776 198.687 105.395C196.964 104.401 196.094 103.107 196.076 101.513C196.069 99.9163 196.532 98.3117 197.463 96.6991ZM200.717 98.5781C200.04 99.7508 199.651 100.772 199.549 101.642C199.459 102.509 199.909 103.228 200.898 103.799C201.448 104.116 202.095 104.079 202.839 103.688C203.594 103.293 204.258 102.601 204.829 101.612L205.4 100.622C205.972 99.6329 206.237 98.716 206.197 97.8718C206.168 97.0245 205.879 96.4422 205.329 96.1248C204.34 95.5535 203.49 95.5271 202.78 96.0457C202.082 96.5612 201.394 97.4053 200.717 98.5781ZM213.306 99.2939C213.439 98.6079 213.725 98.3919 214.164 98.6458L216.132 99.782C216.47 99.9767 216.582 100.291 216.468 100.724L214.58 107.828C214.496 108.16 214.352 108.571 214.148 109.059C213.956 109.544 213.824 109.849 213.752 109.974L213.818 110.012C214.13 109.674 214.37 109.402 214.538 109.196C214.717 108.987 215.091 108.602 215.659 108.041L220.602 103.11C220.921 102.796 221.248 102.736 221.586 102.93L223.554 104.067C223.986 104.316 223.942 104.672 223.421 105.134L213.28 114.143C212.094 115.198 210.974 115.91 209.921 116.279C208.867 116.648 207.78 116.509 206.658 115.861C206.043 115.506 205.523 115.137 205.098 114.755C204.853 114.536 204.857 114.284 205.109 114L206.049 112.93C206.297 112.653 206.548 112.651 206.801 112.924C206.985 113.128 207.177 113.288 207.375 113.402C207.968 113.745 208.582 113.723 209.216 113.336C209.857 112.954 210.345 112.59 210.68 112.247L210.809 112.101L213.306 99.2939Z" fill="white"/>
</svg>
