<svg width="260" height="152" viewBox="0 0 260 152" fill="none" xmlns="http://www.w3.org/2000/svg">
    <path d="M259.117 111.065L63.3377 1H1L259.117 151V111.065Z" fill="#2C72FA" stroke="#2C72FA" stroke-linejoin="round"/>
    <path d="M95.0369 45.2598C94.5239 44.9636 94.426 44.5406 94.7434 43.9909L102.894 29.874C103.211 29.3243 103.626 29.1975 104.139 29.4937L105.767 30.4332C106.397 30.7971 106.725 31.3287 106.752 32.028L107.16 44.2698L107.237 44.3142C107.454 43.8533 107.69 43.4029 107.944 42.9631L112.349 35.333C112.666 34.7833 113.082 34.6565 113.595 34.9527L115.266 35.9176C115.779 36.2138 115.877 36.6368 115.559 37.1865L107.409 51.3034C107.092 51.8531 106.676 51.9799 106.163 51.6836L104.646 50.8077C104.016 50.4437 103.687 49.9121 103.661 49.2129L103.238 36.7427L103.161 36.6983C102.944 37.1592 102.708 37.6096 102.454 38.0493L97.9538 45.8444C97.6364 46.3941 97.2212 46.5209 96.7081 46.2247L95.0369 45.2598ZM110.847 54.3877C110.407 54.1338 110.314 53.787 110.568 53.3472L116.471 43.1224C116.725 42.6826 117.072 42.5896 117.512 42.8436L119.271 43.8592C119.711 44.1131 119.804 44.4599 119.55 44.8997L113.647 55.1246C113.393 55.5643 113.046 55.6573 112.606 55.4034L110.847 54.3877ZM118.49 41.1504C118.05 40.8965 117.957 40.5497 118.211 40.1099L119.023 38.7026C119.277 38.2628 119.624 38.1699 120.064 38.4238L121.823 39.4394C122.263 39.6933 122.356 40.0402 122.102 40.4799L121.289 41.8872C121.035 42.327 120.688 42.4199 120.249 42.166L118.49 41.1504ZM118.973 51.3832C120.052 49.5142 121.368 48.3191 122.919 47.7979C124.471 47.2768 126.218 47.577 128.161 48.6984C129.297 49.3543 130.093 50.0145 130.55 50.6789C131.007 51.3434 131.259 52.0751 131.306 52.8742C131.334 53.3499 131.141 53.6 130.726 53.6244L129.116 53.7211C128.659 53.7506 128.419 53.4991 128.394 52.9668C128.379 52.7043 128.259 52.3615 128.034 51.9385C127.81 51.5155 127.437 51.1537 126.917 50.8533C126.088 50.3751 125.3 50.3107 124.551 50.6601C123.806 51.0021 123.031 51.8695 122.227 53.2621C121.423 54.6548 121.057 55.7628 121.129 56.5861C121.205 57.4021 121.658 58.0492 122.486 58.5274C123.08 58.8702 123.632 59.0228 124.142 58.9852C124.652 58.9475 125.183 58.8239 125.734 58.6143C126.207 58.438 126.528 58.5596 126.696 58.9792L127.255 60.3721C127.423 60.7917 127.256 61.1248 126.752 61.3714C126.22 61.6315 125.492 61.7678 124.566 61.7805C123.647 61.7974 122.539 61.4314 121.242 60.6823C119.299 59.5609 118.166 58.198 117.841 56.5935C117.517 54.989 117.894 53.2523 118.973 51.3832ZM130.913 58.2768C131.984 56.4224 133.29 55.2267 134.831 54.6898C136.38 54.1571 138.001 54.3795 139.694 55.3571C141.658 56.4912 142.825 57.839 143.194 59.4007C143.563 60.9623 143.1 62.8645 141.805 65.1074C141.551 65.5472 141.219 65.6486 140.808 65.4116L133.552 61.2221C132.967 62.5066 132.825 63.446 133.127 64.0405C133.428 64.635 133.898 65.1163 134.536 65.4845C135.144 65.8357 135.656 66.0238 136.072 66.0487C136.487 66.0737 136.886 66.0104 137.266 65.8588C137.702 65.6802 138.039 65.8066 138.279 66.2381L138.991 67.5435C139.271 68.057 139.151 68.4082 138.632 68.5969C137.876 68.8739 137.121 68.9707 136.368 68.8876C135.614 68.8045 134.589 68.3884 133.292 67.6394C131.188 66.4248 129.998 65.0244 129.722 63.438C129.445 61.8516 129.842 60.1312 130.913 58.2768ZM134.832 59.0296L139.615 61.7908C140.072 60.9992 140.246 60.24 140.138 59.513C140.035 58.7788 139.55 58.162 138.685 57.6626C137.996 57.2648 137.311 57.1914 136.628 57.4425C135.95 57.6861 135.351 58.2152 134.832 59.0296ZM149.943 76.96C149.357 76.6215 149.222 76.1773 149.54 75.6276L157.69 61.5107C158.008 60.961 158.459 60.8554 159.046 61.1939L162.784 63.3521C165.599 64.9771 167.296 66.4213 167.876 67.6847C168.468 68.945 168.349 70.2934 167.519 71.73C166.94 72.7342 166.121 73.2974 165.063 73.4197C164.013 73.5463 163.118 73.4547 162.378 73.1448L162.359 73.1778C163.001 73.6069 163.59 74.3968 164.128 75.5477C164.666 76.6985 164.602 77.8494 163.938 79.0001C163.159 80.3488 161.979 81.1235 160.397 81.3243C158.815 81.5251 156.76 80.8956 154.231 79.4356L149.943 76.96ZM153.823 75.6231L155.428 76.5498C156.982 77.447 158.116 77.9207 158.829 77.9711C159.55 78.0258 160.15 77.639 160.628 76.8107C161.077 76.0338 161.059 75.3104 160.576 74.6406C160.105 73.9677 159.18 73.2335 157.802 72.4379L156.197 71.5111L153.823 75.6231ZM157.695 68.9164L159.135 69.748C160.081 70.2939 161.059 70.6389 162.071 70.783C163.089 70.9314 163.8 70.6574 164.202 69.9611C164.515 69.4187 164.521 68.8749 164.22 68.3298C163.931 67.7816 162.947 67.0229 161.268 66.0538L159.828 65.2223L157.695 68.9164ZM166.718 80.2533L170.234 74.1624C170.488 73.7226 170.835 73.6297 171.275 73.8836L173.034 74.8992C173.474 75.1531 173.567 75.5 173.313 75.9397L170.253 81.2391C169.331 82.8369 168.859 83.9082 168.838 84.453C168.816 84.9977 169.157 85.4732 169.861 85.8795C170.609 86.3111 171.348 86.3422 172.079 85.9728C172.815 85.5961 173.726 84.4658 174.814 82.5821L177.315 78.2503C177.569 77.8105 177.916 77.7176 178.355 77.9715L180.114 78.9871C180.554 79.241 180.647 79.5879 180.393 80.0276L174.49 90.2525C174.236 90.6923 173.889 90.7852 173.449 90.5313L171.712 89.5284C171.273 89.2745 171.18 88.9276 171.434 88.4878L171.802 87.8502L171.758 87.8248C171.086 88.2091 170.427 88.3611 169.779 88.2805C169.136 88.1926 168.459 87.9434 167.748 87.5329C166.627 86.8855 165.9 85.9868 165.567 84.8368C165.234 83.6869 165.618 82.159 166.718 80.2533ZM179.816 86.5112C180.747 84.8986 181.904 83.6997 183.286 82.9143C184.679 82.1258 186.237 82.2288 187.96 83.2233C188.619 83.6041 189.129 84.0253 189.488 84.4867C189.847 84.9481 190.035 85.604 190.052 86.4544L190.096 86.4798C190.236 86.1697 190.391 85.868 190.56 85.5748L193.124 81.1331C193.378 80.6933 193.725 80.6003 194.165 80.8542L195.924 81.8699C196.364 82.1238 196.457 82.4706 196.203 82.9104L187.595 97.8189C187.341 98.2587 186.995 98.3516 186.555 98.0977L184.818 97.0948C184.451 96.8832 184.38 96.549 184.605 96.0923L184.929 95.4293L184.885 95.4039C184.14 95.8142 183.478 95.9792 182.899 95.8989C182.32 95.8187 181.7 95.5881 181.041 95.2072C179.318 94.2128 178.448 92.9187 178.43 91.3251C178.423 89.7283 178.885 88.1237 179.816 86.5112ZM183.071 88.3901C182.394 89.5628 182.004 90.5841 181.903 91.4539C181.813 92.3206 182.263 93.0396 183.252 93.6109C183.802 93.9283 184.449 93.8913 185.193 93.4999C185.948 93.1054 186.612 92.4134 187.183 91.4239L187.754 90.4344C188.326 89.4449 188.591 88.528 188.551 87.6838C188.522 86.8365 188.233 86.2542 187.683 85.9368C186.693 85.3655 185.844 85.3391 185.134 85.8577C184.436 86.3732 183.748 87.2173 183.071 88.3901ZM192.922 94.0776C193.853 92.465 195.009 91.2661 196.391 90.4807C197.785 89.6922 199.343 89.7952 201.065 90.7897C201.725 91.1705 202.234 91.5917 202.593 92.0531C202.952 92.5145 203.14 93.1704 203.157 94.0208L203.201 94.0462C203.341 93.7361 203.496 93.4344 203.665 93.1412L206.23 88.6995C206.484 88.2597 206.831 88.1668 207.27 88.4207L209.029 89.4363C209.469 89.6902 209.562 90.037 209.308 90.4768L200.701 105.385C200.447 105.825 200.1 105.918 199.66 105.664L197.923 104.661C197.557 104.45 197.486 104.115 197.71 103.659L198.034 102.996L197.991 102.97C197.245 103.381 196.583 103.546 196.004 103.465C195.425 103.385 194.806 103.155 194.146 102.774C192.424 101.779 191.553 100.485 191.535 98.8915C191.529 97.2947 191.991 95.6901 192.922 94.0776ZM196.176 95.9565C195.499 97.1292 195.11 98.1505 195.008 99.0203C194.918 99.887 195.368 100.606 196.358 101.177C196.907 101.495 197.554 101.458 198.298 101.066C199.054 100.672 199.717 99.9798 200.288 98.9903L200.86 98.0008C201.431 97.0113 201.696 96.0944 201.656 95.2502C201.627 94.4029 201.338 93.8206 200.788 93.5032C199.799 92.9319 198.949 92.9055 198.239 93.4241C197.541 93.9396 196.853 94.7837 196.176 95.9565ZM208.766 96.6723C208.898 95.9863 209.184 95.7703 209.624 96.0242L211.592 97.1605C211.929 97.3551 212.041 97.669 211.928 98.102L210.039 105.206C209.955 105.539 209.811 105.949 209.607 106.437C209.415 106.923 209.283 107.228 209.211 107.352L209.277 107.39C209.589 107.053 209.829 106.781 209.997 106.575C210.176 106.365 210.55 105.98 211.119 105.419L216.062 100.489C216.38 100.174 216.708 100.114 217.045 100.309L219.013 101.445C219.445 101.695 219.401 102.05 218.881 102.512L208.739 111.521C207.553 112.576 206.434 113.288 205.38 113.657C204.327 114.026 203.239 113.887 202.118 113.24C201.502 112.884 200.982 112.516 200.557 112.134C200.313 111.914 200.316 111.662 200.569 111.378L201.509 110.308C201.757 110.031 202.007 110.029 202.26 110.302C202.445 110.507 202.636 110.666 202.834 110.78C203.428 111.123 204.041 111.101 204.675 110.714C205.316 110.332 205.804 109.969 206.14 109.625L206.268 109.479L208.766 96.6723Z" fill="white"/>
</svg>
