<svg width="1445" height="300" viewBox="0 0 1445 300" fill="none" xmlns="http://www.w3.org/2000/svg">
    <path d="M0 150C0 232.843 67.1573 300 150 300C232.843 300 300 232.843 300 150C300 67.1573 232.843 0 150 0C67.1573 0 0 67.1573 0 150Z" fill="url(#paint0_linear_120_72)"/>
    <path d="M115.865 225.906H115.859C93.4315 225.906 72.4487 219.702 54.5482 208.92L54.5424 208.917C54.1013 208.652 53.7348 208.28 53.4774 207.834C53.2225 207.393 53.0829 206.895 53.0716 206.385C53.0714 206.381 53.0714 206.376 53.0713 206.371L53.0625 205.297C53.0625 205.292 53.0625 205.286 53.0625 205.281C53.0668 188.632 59.6824 172.666 71.4553 160.893C83.232 149.116 99.2046 142.5 115.859 142.5C132.514 142.5 148.487 149.116 160.263 160.893C172.04 172.669 178.656 188.642 178.656 205.297V205.325L178.647 206.374C178.647 206.378 178.647 206.383 178.647 206.387C178.637 206.896 178.498 207.395 178.243 207.837C177.986 208.282 177.621 208.655 177.18 208.92L179.244 212.347L177.18 208.92C158.672 220.066 137.47 225.939 115.865 225.906ZM200.719 205.353L200.723 204.69L200.708 204.644C200.609 188.301 195.773 172.371 186.835 158.765C192.086 156.983 197.655 156.261 203.218 156.66C210.381 157.173 217.29 159.528 223.277 163.495C229.263 167.463 234.123 172.909 237.386 179.306C240.649 185.703 242.206 192.835 241.904 200.01L241.903 200.014C241.881 200.56 241.711 201.089 241.413 201.547L244.761 203.734L241.412 201.547C241.114 202.004 240.697 202.373 240.206 202.613L240.202 202.614C227.698 208.742 213.972 211.893 200.095 211.854C200.473 210.181 200.68 208.468 200.709 206.742L200.709 206.722L200.709 206.703L200.719 205.353ZM81.1875 85.7656C81.1875 76.5701 84.8404 67.7511 91.3427 61.2489C97.8449 54.7467 106.664 51.0938 115.859 51.0938C125.055 51.0938 133.874 54.7467 140.376 61.2489L143.205 58.4205L140.376 61.2489C146.878 67.7511 150.531 76.5701 150.531 85.7656C150.531 94.9612 146.878 103.78 140.376 110.282C133.874 116.785 125.055 120.438 115.859 120.438C106.664 120.438 97.8449 116.785 91.3427 110.282C84.8404 103.78 81.1875 94.9612 81.1875 85.7656ZM172.594 106.859C172.594 103.23 173.309 99.6353 174.698 96.2818C176.087 92.9282 178.123 89.8812 180.69 87.3145C183.256 84.7478 186.303 82.7118 189.657 81.3228C193.01 79.9337 196.605 79.2188 200.234 79.2188C203.864 79.2188 207.458 79.9337 210.812 81.3228C214.166 82.7118 217.213 84.7478 219.779 87.3145C222.346 89.8812 224.382 92.9282 225.771 96.2818C227.16 99.6353 227.875 103.23 227.875 106.859C227.875 114.19 224.963 121.221 219.779 126.404C214.596 131.588 207.565 134.5 200.234 134.5C192.904 134.5 185.873 131.588 180.69 126.404C175.506 121.221 172.594 114.19 172.594 106.859Z" fill="#4CBD17" stroke="#122E04" stroke-width="8"/>
    <path d="M198.102 166.939L197.041 165.879L195.981 166.939L187.001 175.919L185.94 176.979L187.001 178.04L204.96 195.999L206.021 197.059L207.081 195.999L216.061 187.019L217.121 185.959L216.061 184.898L198.102 166.939Z" fill="#EF8A17" stroke="white" stroke-width="3"/>
    <path d="M161.722 206.415V204.915H160.222H147.523H146.023V206.415V231.813V233.313H147.523H160.222H161.722V231.813V206.415Z" fill="#EF8A17" stroke="white" stroke-width="3"/>
    <path d="M193.613 189.388L192.552 190.449L193.612 189.388C170.71 166.486 133.579 166.486 110.677 189.388C87.7745 212.29 87.7745 249.421 110.677 272.323C133.579 295.226 170.71 295.226 193.613 272.323C216.514 249.421 216.514 212.29 193.613 189.388ZM182.511 200.488L183.572 199.428L182.511 200.489C199.283 217.26 199.283 244.452 182.511 261.223L183.572 262.283L182.511 261.223C165.74 277.994 138.549 277.994 121.777 261.223L120.717 262.283L121.777 261.223C105.006 244.452 105.006 217.26 121.777 200.489C138.549 183.717 165.74 183.717 182.511 200.488Z" fill="#EF8A17" stroke="white" stroke-width="3"/>
    <path d="M321.719 212C318.464 212 316.836 210.21 316.836 206.629V77.332C316.836 73.7513 318.464 71.9609 321.719 71.9609H362.734C384.87 71.9609 399.811 75.7044 407.559 83.1914C415.306 90.6133 419.18 100.835 419.18 113.855C419.18 126.876 415.306 137.13 407.559 144.617C399.811 152.039 384.87 155.75 362.734 155.75H335.586V206.629C335.586 210.21 333.958 212 330.703 212H321.719ZM335.586 139.734H363.027C377.35 139.734 387.116 137.716 392.324 133.68C397.533 129.578 400.137 122.97 400.137 113.855C400.137 104.741 397.533 98.1654 392.324 94.1289C387.116 90.0273 377.35 87.9766 363.027 87.9766H335.586V139.734ZM436.27 184.656C436.27 173.068 441.673 164.572 452.48 159.168C463.353 153.764 479.564 150.607 501.113 149.695V143.055C501.113 136.935 499.714 131.661 496.914 127.234C494.18 122.742 488.711 120.496 480.508 120.496C475.299 120.496 471.133 121.017 468.008 122.059C464.883 123.035 462.018 124.37 459.414 126.062C456.875 127.69 454.434 129.806 452.09 132.41C450.332 134.363 448.672 134.461 447.109 132.703L442.031 126.844C440.599 125.216 441.087 123.263 443.496 120.984C446.947 117.729 450.299 115.288 453.555 113.66C456.81 112.033 460.846 110.665 465.664 109.559C470.547 108.387 475.495 107.801 480.508 107.801C494.115 107.801 503.815 111.316 509.609 118.348C515.404 125.314 518.301 134.884 518.301 147.059V207.605C518.301 210.535 516.836 212 513.906 212H505.117C502.578 212 501.309 210.535 501.309 207.605V202.82H501.113C495.97 206.857 490.924 209.689 485.977 211.316C481.094 212.879 475.625 213.66 469.57 213.66C458.893 213.66 450.658 211.121 444.863 206.043C439.134 200.9 436.27 193.771 436.27 184.656ZM454.043 185.047C454.043 189.083 454.889 192.339 456.582 194.812C458.275 197.221 460.618 198.784 463.613 199.5C466.608 200.151 469.733 200.477 472.988 200.477C478.001 200.477 482.754 199.988 487.246 199.012C491.738 198.035 496.361 195.464 501.113 191.297V162.488C487.962 163.465 478.587 164.669 472.988 166.102C467.389 167.469 462.832 169.878 459.316 173.328C455.801 176.714 454.043 180.62 454.043 185.047ZM540.566 160.73C540.566 145.431 544.342 132.801 551.895 122.84C559.512 112.814 571.133 107.801 586.758 107.801C597.305 107.801 605.345 109.689 610.879 113.465C616.478 117.176 620.514 120.984 622.988 124.891C624.355 127.039 624.062 128.764 622.109 130.066L615.957 134.07C614.004 135.438 612.051 134.559 610.098 131.434C608.21 128.439 605.54 125.867 602.09 123.719C598.704 121.57 593.594 120.496 586.758 120.496C577.839 120.496 570.938 123.784 566.055 130.359C561.172 136.935 558.73 147.059 558.73 160.73C558.73 174.402 561.172 184.526 566.055 191.102C570.938 197.677 577.839 200.965 586.758 200.965C593.984 200.965 599.518 199.598 603.359 196.863C607.201 194.064 610 191.036 611.758 187.781C613.451 184.721 615.371 183.842 617.52 185.145L624.062 189.051C626.016 190.223 626.309 191.98 624.941 194.324C623.314 197.124 619.603 201.062 613.809 206.141C608.079 211.154 599.062 213.66 586.758 213.66C571.133 213.66 559.512 208.68 551.895 198.719C544.342 188.693 540.566 176.03 540.566 160.73ZM640.762 160.73C640.762 144.585 644.798 131.727 652.871 122.156C660.944 112.586 672.5 107.801 687.539 107.801C700.039 107.801 710.391 112.195 718.594 120.984C726.862 129.708 730.996 143.673 730.996 162.879C730.996 165.809 729.661 167.273 726.992 167.273H658.926C660.033 179.839 663.418 188.595 669.082 193.543C674.746 198.426 681.159 200.867 688.32 200.867C695.872 200.867 701.667 199.598 705.703 197.059C709.74 194.52 712.702 192.013 714.59 189.539C716.673 186.805 718.691 186.284 720.645 187.977L726.406 192.957C727.904 194.259 727.904 196.049 726.406 198.328C725.169 200.216 721.621 203.243 715.762 207.41C709.967 211.577 700.82 213.66 688.32 213.66C672.044 213.66 660.033 208.875 652.285 199.305C644.603 189.734 640.762 176.876 640.762 160.73ZM658.535 154.578H713.711C713.451 145.464 711.107 137.488 706.68 130.652C702.253 123.751 695.742 120.301 687.148 120.301C679.596 120.301 673.184 122.84 667.91 127.918C662.637 132.931 659.512 141.818 658.535 154.578Z" fill="#4CBD17"/>
    <path d="M761.172 212C757.917 212 756.289 210.21 756.289 206.629V77.332C756.289 73.7513 757.917 71.9609 761.172 71.9609H799.258C821.393 71.9609 836.302 75.5417 843.984 82.7031C851.667 89.8646 855.508 98.4909 855.508 108.582C855.508 116.59 852.318 123.393 845.938 128.992C839.557 134.526 833.372 137.781 827.383 138.758V139.051C833.958 139.637 841.283 142.924 849.355 148.914C857.493 154.839 861.562 162.911 861.562 173.133C861.562 184.201 857.461 193.445 849.258 200.867C841.12 208.289 826.081 212 804.141 212H761.172ZM775.039 195.984H801.016C815.013 195.984 825.267 194.259 831.777 190.809C838.288 187.358 841.543 181.271 841.543 172.547C841.543 164.474 838.223 158.224 831.582 153.797C825.007 149.37 814.818 147.156 801.016 147.156H775.039V195.984ZM775.039 133.094H799.551C810.423 133.094 819.277 130.783 826.113 126.16C833.014 121.473 836.465 115.613 836.465 108.582C836.465 101.876 833.893 96.7656 828.75 93.25C823.607 89.7344 813.874 87.9766 799.551 87.9766H775.039V133.094ZM885.977 176.258V113.855C885.977 110.926 887.441 109.461 890.371 109.461H898.77C901.699 109.461 903.164 110.926 903.164 113.855V171.57C903.164 184.331 905.28 192.436 909.512 195.887C913.743 199.272 918.984 200.965 925.234 200.965C933.438 200.965 939.72 198.458 944.082 193.445C948.444 188.367 950.625 179.708 950.625 167.469V113.855C950.625 110.926 952.09 109.461 955.02 109.461H963.418C966.348 109.461 967.812 110.926 967.812 113.855V207.605C967.812 210.535 966.348 212 963.418 212H955.215C952.285 212 950.82 210.535 950.82 207.605V199.793H950.43C946.198 204.48 941.641 207.964 936.758 210.242C931.875 212.521 925.918 213.66 918.887 213.66C907.493 213.66 899.16 210.34 893.887 203.699C888.613 196.993 885.977 187.846 885.977 176.258ZM989.98 160.73C989.98 146.733 993.366 134.428 1000.14 123.816C1006.91 113.139 1016.8 107.801 1029.82 107.801C1037.31 107.801 1043.3 109.038 1047.79 111.512C1052.29 113.986 1056.32 117.371 1059.9 121.668H1060.1C1059.97 119.715 1059.9 117.729 1059.9 115.711V72.2539C1059.9 69.3242 1061.37 67.8594 1064.3 67.8594H1072.7C1075.62 67.8594 1077.09 69.3242 1077.09 72.2539V207.605C1077.09 210.535 1075.62 212 1072.7 212H1064.49C1062.15 212 1060.88 210.535 1060.68 207.605L1060.1 199.793H1059.9C1056.32 204.09 1052.29 207.475 1047.79 209.949C1043.3 212.423 1037.31 213.66 1029.82 213.66C1016.8 213.66 1006.91 208.354 1000.14 197.742C993.366 187.065 989.98 174.728 989.98 160.73ZM1008.14 160.73C1008.14 172.71 1010.2 182.41 1014.3 189.832C1018.46 197.254 1025.49 200.965 1035.39 200.965C1042.42 200.965 1048.25 198.589 1052.87 193.836C1057.56 189.018 1059.9 181.727 1059.9 171.961V149.5C1059.9 139.734 1057.56 132.475 1052.87 127.723C1048.25 122.905 1042.42 120.496 1035.39 120.496C1025.49 120.496 1018.46 124.207 1014.3 131.629C1010.2 139.051 1008.14 148.751 1008.14 160.73ZM1099.36 160.73C1099.36 146.733 1102.74 134.428 1109.51 123.816C1116.28 113.139 1126.18 107.801 1139.2 107.801C1146.69 107.801 1152.68 109.038 1157.17 111.512C1161.66 113.986 1165.7 117.371 1169.28 121.668H1169.47C1169.34 119.715 1169.28 117.729 1169.28 115.711V72.2539C1169.28 69.3242 1170.74 67.8594 1173.67 67.8594H1182.07C1185 67.8594 1186.46 69.3242 1186.46 72.2539V207.605C1186.46 210.535 1185 212 1182.07 212H1173.87C1171.52 212 1170.25 210.535 1170.06 207.605L1169.47 199.793H1169.28C1165.7 204.09 1161.66 207.475 1157.17 209.949C1152.68 212.423 1146.69 213.66 1139.2 213.66C1126.18 213.66 1116.28 208.354 1109.51 197.742C1102.74 187.065 1099.36 174.728 1099.36 160.73ZM1117.52 160.73C1117.52 172.71 1119.57 182.41 1123.67 189.832C1127.84 197.254 1134.87 200.965 1144.77 200.965C1151.8 200.965 1157.62 198.589 1162.25 193.836C1166.93 189.018 1169.28 181.727 1169.28 171.961V149.5C1169.28 139.734 1166.93 132.475 1162.25 127.723C1157.62 122.905 1151.8 120.496 1144.77 120.496C1134.87 120.496 1127.84 124.207 1123.67 131.629C1119.57 139.051 1117.52 148.751 1117.52 160.73ZM1218.69 212C1215.76 212 1214.3 210.535 1214.3 207.605V113.855C1214.3 110.926 1215.76 109.461 1218.69 109.461H1227.09C1230.02 109.461 1231.48 110.926 1231.48 113.855V207.605C1231.48 210.535 1230.02 212 1227.09 212H1218.69ZM1218.69 90.9062C1215.76 90.9062 1214.3 89.4414 1214.3 86.5117V78.1133C1214.3 75.1836 1215.76 73.7188 1218.69 73.7188H1227.09C1230.02 73.7188 1231.48 75.1836 1231.48 78.1133V86.5117C1231.48 89.4414 1230.02 90.9062 1227.09 90.9062H1218.69ZM1253.65 160.73C1253.65 144.585 1257.69 131.727 1265.76 122.156C1273.83 112.586 1285.39 107.801 1300.43 107.801C1312.93 107.801 1323.28 112.195 1331.48 120.984C1339.75 129.708 1343.89 143.673 1343.89 162.879C1343.89 165.809 1342.55 167.273 1339.88 167.273H1271.82C1272.92 179.839 1276.31 188.595 1281.97 193.543C1287.64 198.426 1294.05 200.867 1301.21 200.867C1308.76 200.867 1314.56 199.598 1318.59 197.059C1322.63 194.52 1325.59 192.013 1327.48 189.539C1329.56 186.805 1331.58 186.284 1333.54 187.977L1339.3 192.957C1340.79 194.259 1340.79 196.049 1339.3 198.328C1338.06 200.216 1334.51 203.243 1328.65 207.41C1322.86 211.577 1313.71 213.66 1301.21 213.66C1284.93 213.66 1272.92 208.875 1265.18 199.305C1257.49 189.734 1253.65 176.876 1253.65 160.73ZM1271.43 154.578H1326.6C1326.34 145.464 1324 137.488 1319.57 130.652C1315.14 123.751 1308.63 120.301 1300.04 120.301C1292.49 120.301 1286.07 122.84 1280.8 127.918C1275.53 132.931 1272.4 141.818 1271.43 154.578ZM1362.44 202.43C1360.42 200.542 1360 198.784 1361.17 197.156L1365.57 191.004C1367 189.051 1369.11 189.148 1371.91 191.297C1375.76 194.227 1380.02 196.57 1384.71 198.328C1389.46 200.086 1394.86 200.965 1400.92 200.965C1404.5 200.965 1407.69 200.542 1410.49 199.695C1413.29 198.784 1415.73 197.124 1417.81 194.715C1419.96 192.306 1421.04 189.083 1421.04 185.047C1421.04 182.703 1420.51 180.49 1419.47 178.406C1418.5 176.323 1416.93 174.663 1414.79 173.426C1412.7 172.124 1410.65 171.115 1408.63 170.398C1405.31 169.161 1401.99 168.152 1398.67 167.371C1395.42 166.525 1391.12 165.255 1385.78 163.562C1382.2 162.456 1378.82 160.893 1375.62 158.875C1372.43 156.792 1369.64 153.992 1367.23 150.477C1364.88 146.961 1363.71 142.111 1363.71 135.926C1363.71 129.611 1365.63 124.174 1369.47 119.617C1373.31 115.06 1378.13 111.967 1383.93 110.34C1389.72 108.647 1395.35 107.801 1400.82 107.801C1408.89 107.801 1415.37 108.745 1420.25 110.633C1425.2 112.456 1429.47 114.637 1433.05 117.176C1435.13 118.673 1435.42 120.398 1433.93 122.352L1429.53 128.211C1428.16 130.099 1426.05 130.034 1423.18 128.016C1420.77 126.323 1417.36 124.728 1412.93 123.23C1408.5 121.733 1404.63 120.984 1401.31 120.984C1397.21 120.984 1393.69 121.44 1390.76 122.352C1387.83 123.263 1385.46 124.826 1383.63 127.039C1381.81 129.253 1380.9 131.857 1380.9 134.852C1380.9 137.13 1381.26 139.181 1381.97 141.004C1382.69 142.762 1384.02 144.389 1385.98 145.887C1387.93 147.384 1390.66 148.589 1394.18 149.5C1399.65 150.932 1404.63 152.234 1409.12 153.406C1413.68 154.578 1417.78 156.01 1421.43 157.703C1426.18 159.917 1429.82 162.358 1432.36 165.027C1434.97 167.697 1436.76 170.594 1437.73 173.719C1438.71 176.779 1439.2 180.197 1439.2 183.973C1439.2 190.939 1437.12 196.831 1432.95 201.648C1428.85 206.466 1424.26 209.689 1419.18 211.316C1414.1 212.879 1407.98 213.66 1400.82 213.66C1391.12 213.66 1382.79 212.293 1375.82 209.559C1368.92 206.759 1364.46 204.383 1362.44 202.43Z" fill="#4CBD17"/>
    <path d="M761.172 212C757.917 212 756.289 210.21 756.289 206.629V77.332C756.289 73.7513 757.917 71.9609 761.172 71.9609H799.258C821.393 71.9609 836.302 75.5417 843.984 82.7031C851.667 89.8646 855.508 98.4909 855.508 108.582C855.508 116.59 852.318 123.393 845.938 128.992C839.557 134.526 833.372 137.781 827.383 138.758V139.051C833.958 139.637 841.283 142.924 849.355 148.914C857.493 154.839 861.562 162.911 861.562 173.133C861.562 184.201 857.461 193.445 849.258 200.867C841.12 208.289 826.081 212 804.141 212H761.172ZM775.039 195.984H801.016C815.013 195.984 825.267 194.259 831.777 190.809C838.288 187.358 841.543 181.271 841.543 172.547C841.543 164.474 838.223 158.224 831.582 153.797C825.007 149.37 814.818 147.156 801.016 147.156H775.039V195.984ZM775.039 133.094H799.551C810.423 133.094 819.277 130.783 826.113 126.16C833.014 121.473 836.465 115.613 836.465 108.582C836.465 101.876 833.893 96.7656 828.75 93.25C823.607 89.7344 813.874 87.9766 799.551 87.9766H775.039V133.094ZM885.977 176.258V113.855C885.977 110.926 887.441 109.461 890.371 109.461H898.77C901.699 109.461 903.164 110.926 903.164 113.855V171.57C903.164 184.331 905.28 192.436 909.512 195.887C913.743 199.272 918.984 200.965 925.234 200.965C933.438 200.965 939.72 198.458 944.082 193.445C948.444 188.367 950.625 179.708 950.625 167.469V113.855C950.625 110.926 952.09 109.461 955.02 109.461H963.418C966.348 109.461 967.812 110.926 967.812 113.855V207.605C967.812 210.535 966.348 212 963.418 212H955.215C952.285 212 950.82 210.535 950.82 207.605V199.793H950.43C946.198 204.48 941.641 207.964 936.758 210.242C931.875 212.521 925.918 213.66 918.887 213.66C907.493 213.66 899.16 210.34 893.887 203.699C888.613 196.993 885.977 187.846 885.977 176.258ZM989.98 160.73C989.98 146.733 993.366 134.428 1000.14 123.816C1006.91 113.139 1016.8 107.801 1029.82 107.801C1037.31 107.801 1043.3 109.038 1047.79 111.512C1052.29 113.986 1056.32 117.371 1059.9 121.668H1060.1C1059.97 119.715 1059.9 117.729 1059.9 115.711V72.2539C1059.9 69.3242 1061.37 67.8594 1064.3 67.8594H1072.7C1075.62 67.8594 1077.09 69.3242 1077.09 72.2539V207.605C1077.09 210.535 1075.62 212 1072.7 212H1064.49C1062.15 212 1060.88 210.535 1060.68 207.605L1060.1 199.793H1059.9C1056.32 204.09 1052.29 207.475 1047.79 209.949C1043.3 212.423 1037.31 213.66 1029.82 213.66C1016.8 213.66 1006.91 208.354 1000.14 197.742C993.366 187.065 989.98 174.728 989.98 160.73ZM1008.14 160.73C1008.14 172.71 1010.2 182.41 1014.3 189.832C1018.46 197.254 1025.49 200.965 1035.39 200.965C1042.42 200.965 1048.25 198.589 1052.87 193.836C1057.56 189.018 1059.9 181.727 1059.9 171.961V149.5C1059.9 139.734 1057.56 132.475 1052.87 127.723C1048.25 122.905 1042.42 120.496 1035.39 120.496C1025.49 120.496 1018.46 124.207 1014.3 131.629C1010.2 139.051 1008.14 148.751 1008.14 160.73ZM1099.36 160.73C1099.36 146.733 1102.74 134.428 1109.51 123.816C1116.28 113.139 1126.18 107.801 1139.2 107.801C1146.69 107.801 1152.68 109.038 1157.17 111.512C1161.66 113.986 1165.7 117.371 1169.28 121.668H1169.47C1169.34 119.715 1169.28 117.729 1169.28 115.711V72.2539C1169.28 69.3242 1170.74 67.8594 1173.67 67.8594H1182.07C1185 67.8594 1186.46 69.3242 1186.46 72.2539V207.605C1186.46 210.535 1185 212 1182.07 212H1173.87C1171.52 212 1170.25 210.535 1170.06 207.605L1169.47 199.793H1169.28C1165.7 204.09 1161.66 207.475 1157.17 209.949C1152.68 212.423 1146.69 213.66 1139.2 213.66C1126.18 213.66 1116.28 208.354 1109.51 197.742C1102.74 187.065 1099.36 174.728 1099.36 160.73ZM1117.52 160.73C1117.52 172.71 1119.57 182.41 1123.67 189.832C1127.84 197.254 1134.87 200.965 1144.77 200.965C1151.8 200.965 1157.62 198.589 1162.25 193.836C1166.93 189.018 1169.28 181.727 1169.28 171.961V149.5C1169.28 139.734 1166.93 132.475 1162.25 127.723C1157.62 122.905 1151.8 120.496 1144.77 120.496C1134.87 120.496 1127.84 124.207 1123.67 131.629C1119.57 139.051 1117.52 148.751 1117.52 160.73ZM1218.69 212C1215.76 212 1214.3 210.535 1214.3 207.605V113.855C1214.3 110.926 1215.76 109.461 1218.69 109.461H1227.09C1230.02 109.461 1231.48 110.926 1231.48 113.855V207.605C1231.48 210.535 1230.02 212 1227.09 212H1218.69ZM1218.69 90.9062C1215.76 90.9062 1214.3 89.4414 1214.3 86.5117V78.1133C1214.3 75.1836 1215.76 73.7188 1218.69 73.7188H1227.09C1230.02 73.7188 1231.48 75.1836 1231.48 78.1133V86.5117C1231.48 89.4414 1230.02 90.9062 1227.09 90.9062H1218.69ZM1253.65 160.73C1253.65 144.585 1257.69 131.727 1265.76 122.156C1273.83 112.586 1285.39 107.801 1300.43 107.801C1312.93 107.801 1323.28 112.195 1331.48 120.984C1339.75 129.708 1343.89 143.673 1343.89 162.879C1343.89 165.809 1342.55 167.273 1339.88 167.273H1271.82C1272.92 179.839 1276.31 188.595 1281.97 193.543C1287.64 198.426 1294.05 200.867 1301.21 200.867C1308.76 200.867 1314.56 199.598 1318.59 197.059C1322.63 194.52 1325.59 192.013 1327.48 189.539C1329.56 186.805 1331.58 186.284 1333.54 187.977L1339.3 192.957C1340.79 194.259 1340.79 196.049 1339.3 198.328C1338.06 200.216 1334.51 203.243 1328.65 207.41C1322.86 211.577 1313.71 213.66 1301.21 213.66C1284.93 213.66 1272.92 208.875 1265.18 199.305C1257.49 189.734 1253.65 176.876 1253.65 160.73ZM1271.43 154.578H1326.6C1326.34 145.464 1324 137.488 1319.57 130.652C1315.14 123.751 1308.63 120.301 1300.04 120.301C1292.49 120.301 1286.07 122.84 1280.8 127.918C1275.53 132.931 1272.4 141.818 1271.43 154.578ZM1362.44 202.43C1360.42 200.542 1360 198.784 1361.17 197.156L1365.57 191.004C1367 189.051 1369.11 189.148 1371.91 191.297C1375.76 194.227 1380.02 196.57 1384.71 198.328C1389.46 200.086 1394.86 200.965 1400.92 200.965C1404.5 200.965 1407.69 200.542 1410.49 199.695C1413.29 198.784 1415.73 197.124 1417.81 194.715C1419.96 192.306 1421.04 189.083 1421.04 185.047C1421.04 182.703 1420.51 180.49 1419.47 178.406C1418.5 176.323 1416.93 174.663 1414.79 173.426C1412.7 172.124 1410.65 171.115 1408.63 170.398C1405.31 169.161 1401.99 168.152 1398.67 167.371C1395.42 166.525 1391.12 165.255 1385.78 163.562C1382.2 162.456 1378.82 160.893 1375.62 158.875C1372.43 156.792 1369.64 153.992 1367.23 150.477C1364.88 146.961 1363.71 142.111 1363.71 135.926C1363.71 129.611 1365.63 124.174 1369.47 119.617C1373.31 115.06 1378.13 111.967 1383.93 110.34C1389.72 108.647 1395.35 107.801 1400.82 107.801C1408.89 107.801 1415.37 108.745 1420.25 110.633C1425.2 112.456 1429.47 114.637 1433.05 117.176C1435.13 118.673 1435.42 120.398 1433.93 122.352L1429.53 128.211C1428.16 130.099 1426.05 130.034 1423.18 128.016C1420.77 126.323 1417.36 124.728 1412.93 123.23C1408.5 121.733 1404.63 120.984 1401.31 120.984C1397.21 120.984 1393.69 121.44 1390.76 122.352C1387.83 123.263 1385.46 124.826 1383.63 127.039C1381.81 129.253 1380.9 131.857 1380.9 134.852C1380.9 137.13 1381.26 139.181 1381.97 141.004C1382.69 142.762 1384.02 144.389 1385.98 145.887C1387.93 147.384 1390.66 148.589 1394.18 149.5C1399.65 150.932 1404.63 152.234 1409.12 153.406C1413.68 154.578 1417.78 156.01 1421.43 157.703C1426.18 159.917 1429.82 162.358 1432.36 165.027C1434.97 167.697 1436.76 170.594 1437.73 173.719C1438.71 176.779 1439.2 180.197 1439.2 183.973C1439.2 190.939 1437.12 196.831 1432.95 201.648C1428.85 206.466 1424.26 209.689 1419.18 211.316C1414.1 212.879 1407.98 213.66 1400.82 213.66C1391.12 213.66 1382.79 212.293 1375.82 209.559C1368.92 206.759 1364.46 204.383 1362.44 202.43Z" fill="#EF8A17"/>
    <path d="M407.559 83.1914L406.516 84.2701L406.521 84.2746L407.559 83.1914ZM407.559 144.617L408.596 145.7L408.601 145.696L407.559 144.617ZM335.586 155.75V154.25H334.086V155.75H335.586ZM335.586 139.734H334.086V141.234H335.586V139.734ZM392.324 133.68L393.243 134.865L393.252 134.858L392.324 133.68ZM392.324 94.1289L391.396 95.3074L391.405 95.3145L392.324 94.1289ZM335.586 87.9766V86.4766H334.086V87.9766H335.586ZM321.719 210.5C320.361 210.5 319.607 210.133 319.167 209.648C318.701 209.136 318.336 208.222 318.336 206.629H315.336C315.336 208.617 315.785 210.388 316.947 211.666C318.133 212.972 319.821 213.5 321.719 213.5V210.5ZM318.336 206.629V77.332H315.336V206.629H318.336ZM318.336 77.332C318.336 75.7394 318.701 74.8249 319.167 74.3127C319.607 73.8277 320.361 73.4609 321.719 73.4609V70.4609C319.821 70.4609 318.133 70.9894 316.947 72.2947C315.785 73.5729 315.336 75.3439 315.336 77.332H318.336ZM321.719 73.4609H362.734V70.4609H321.719V73.4609ZM362.734 73.4609C384.83 73.4609 399.226 77.225 406.516 84.27L408.601 82.1128C400.396 74.1839 384.909 70.4609 362.734 70.4609V73.4609ZM406.521 84.2746C413.911 91.3546 417.68 101.15 417.68 113.855H420.68C420.68 100.519 416.701 89.872 408.596 82.1082L406.521 84.2746ZM417.68 113.855C417.68 126.561 413.912 136.392 406.516 143.539L408.601 145.696C416.7 137.869 420.68 127.192 420.68 113.855H417.68ZM406.521 143.534C402.901 147.002 397.501 149.693 390.18 151.511C382.867 153.327 373.728 154.25 362.734 154.25V157.25C373.876 157.25 383.275 156.317 390.904 154.423C398.524 152.53 404.469 149.654 408.596 145.7L406.521 143.534ZM362.734 154.25H335.586V157.25H362.734V154.25ZM334.086 155.75V206.629H337.086V155.75H334.086ZM334.086 206.629C334.086 208.222 333.721 209.136 333.255 209.648C332.814 210.133 332.061 210.5 330.703 210.5V213.5C332.601 213.5 334.288 212.972 335.475 211.666C336.637 210.388 337.086 208.617 337.086 206.629H334.086ZM330.703 210.5H321.719V213.5H330.703V210.5ZM335.586 141.234H363.027V138.234H335.586V141.234ZM363.027 141.234C370.251 141.234 376.382 140.726 381.397 139.69C386.399 138.656 390.389 137.077 393.243 134.865L391.405 132.494C389.051 134.319 385.554 135.767 380.79 136.752C376.04 137.733 370.127 138.234 363.027 138.234V141.234ZM393.252 134.858C398.945 130.375 401.637 123.247 401.637 113.855H398.637C398.637 122.694 396.12 128.781 391.396 132.501L393.252 134.858ZM401.637 113.855C401.637 104.466 398.945 97.3625 393.243 92.9433L391.405 95.3145C396.12 98.9683 398.637 105.016 398.637 113.855H401.637ZM393.252 92.9505C390.398 90.7028 386.407 89.0976 381.402 88.0467C376.385 86.993 370.252 86.4766 363.027 86.4766V89.4766C370.126 89.4766 376.037 89.9855 380.785 90.9826C385.547 91.9825 389.042 93.4534 391.396 95.3074L393.252 92.9505ZM363.027 86.4766H335.586V89.4766H363.027V86.4766ZM334.086 87.9766V139.734H337.086V87.9766H334.086ZM452.48 159.168L451.813 157.825L451.81 157.826L452.48 159.168ZM501.113 149.695L501.177 151.194L502.613 151.133V149.695H501.113ZM496.914 127.234L495.633 128.014L495.639 128.025L495.646 128.036L496.914 127.234ZM468.008 122.059L468.455 123.49L468.469 123.486L468.482 123.482L468.008 122.059ZM459.414 126.062L460.224 127.325L460.232 127.32L459.414 126.062ZM452.09 132.41L450.975 131.407L452.09 132.41ZM447.109 132.703L445.976 133.686L445.982 133.693L445.988 133.7L447.109 132.703ZM442.031 126.844L443.165 125.861L443.157 125.853L442.031 126.844ZM443.496 120.984L442.467 119.893L442.465 119.895L443.496 120.984ZM465.664 109.559L466 111.021L466.007 111.019L466.014 111.017L465.664 109.559ZM509.609 118.348L508.452 119.302L508.456 119.307L509.609 118.348ZM501.309 202.82H502.809V201.32H501.309V202.82ZM501.113 202.82V201.32H500.595L500.187 201.64L501.113 202.82ZM485.977 211.316L486.434 212.745L486.445 212.741L485.977 211.316ZM444.863 206.043L443.861 207.159L443.868 207.165L443.875 207.171L444.863 206.043ZM456.582 194.812L455.344 195.66L455.349 195.667L455.355 195.675L456.582 194.812ZM463.613 199.5L463.264 200.959L463.279 200.962L463.295 200.966L463.613 199.5ZM501.113 191.297L502.102 192.425L502.613 191.977V191.297H501.113ZM501.113 162.488H502.613V160.873L501.002 160.992L501.113 162.488ZM472.988 166.102L473.344 167.559L473.352 167.557L473.36 167.555L472.988 166.102ZM459.316 173.328L460.357 174.409L460.362 174.404L460.367 174.399L459.316 173.328ZM437.77 184.656C437.77 179.103 439.061 174.371 441.588 170.398C444.117 166.421 447.942 163.114 453.151 160.51L451.81 157.826C446.212 160.625 441.931 164.268 439.057 168.788C436.18 173.311 434.77 178.621 434.77 184.656H437.77ZM453.148 160.511C463.739 155.248 479.699 152.102 501.177 151.194L501.05 148.197C479.429 149.111 462.967 152.281 451.813 157.825L453.148 160.511ZM502.613 149.695V143.055H499.613V149.695H502.613ZM502.613 143.055C502.613 136.7 501.157 131.138 498.182 126.433L495.646 128.036C498.27 132.185 499.613 137.17 499.613 143.055H502.613ZM498.195 126.454C495.059 121.302 488.924 118.996 480.508 118.996V121.996C488.498 121.996 493.3 124.182 495.633 128.014L498.195 126.454ZM480.508 118.996C475.221 118.996 470.874 119.522 467.533 120.636L468.482 123.482C471.392 122.512 475.378 121.996 480.508 121.996V118.996ZM467.56 120.627C464.312 121.642 461.322 123.034 458.597 124.805L460.232 127.32C462.715 125.706 465.454 124.428 468.455 123.49L467.56 120.627ZM458.605 124.8C455.936 126.51 453.394 128.718 450.975 131.407L453.205 133.414C455.473 130.893 457.814 128.87 460.224 127.325L458.605 124.8ZM450.975 131.407C450.212 132.254 449.698 132.436 449.438 132.451C449.235 132.463 448.84 132.392 448.23 131.707L445.988 133.7C446.942 134.772 448.158 135.531 449.614 135.446C451.015 135.363 452.21 134.519 453.205 133.414L450.975 131.407ZM448.243 131.721L443.165 125.861L440.898 127.826L445.976 133.686L448.243 131.721ZM443.157 125.853C442.737 125.376 442.664 124.979 442.778 124.522C442.922 123.949 443.409 123.131 444.527 122.074L442.465 119.895C441.174 121.116 440.213 122.414 439.868 123.794C439.494 125.291 439.893 126.684 440.905 127.835L443.157 125.853ZM444.525 122.075C447.9 118.892 451.134 116.547 454.226 115.002L452.884 112.319C449.465 114.028 445.993 116.566 442.467 119.893L444.525 122.075ZM454.226 115.002C457.344 113.443 461.26 112.109 466 111.021L465.328 108.097C460.433 109.221 456.276 110.623 452.884 112.319L454.226 115.002ZM466.014 111.017C470.782 109.873 475.613 109.301 480.508 109.301V106.301C475.377 106.301 470.311 106.901 465.314 108.1L466.014 111.017ZM480.508 109.301C493.892 109.301 503.06 112.759 508.452 119.302L510.767 117.394C504.57 109.874 494.337 106.301 480.508 106.301V109.301ZM508.456 119.307C513.96 125.923 516.801 135.114 516.801 147.059H519.801C519.801 134.655 516.848 124.704 510.763 117.388L508.456 119.307ZM516.801 147.059V207.605H519.801V147.059H516.801ZM516.801 207.605C516.801 208.839 516.493 209.489 516.141 209.841C515.79 210.193 515.14 210.5 513.906 210.5V213.5C515.602 213.5 517.15 213.075 518.263 211.962C519.376 210.849 519.801 209.302 519.801 207.605H516.801ZM513.906 210.5H505.117V213.5H513.906V210.5ZM505.117 210.5C504.139 210.5 503.662 210.228 503.394 209.919C503.091 209.569 502.809 208.888 502.809 207.605H499.809C499.809 209.253 500.161 210.769 501.127 211.884C502.129 213.04 503.556 213.5 505.117 213.5V210.5ZM502.809 207.605V202.82H499.809V207.605H502.809ZM501.309 201.32H501.113V204.32H501.309V201.32ZM500.187 201.64C495.148 205.596 490.254 208.33 485.508 209.892L486.445 212.741C491.595 211.047 496.793 208.118 502.039 204L500.187 201.64ZM485.519 209.888C480.808 211.395 475.497 212.16 469.57 212.16V215.16C475.753 215.16 481.379 214.362 486.434 212.745L485.519 209.888ZM469.57 212.16C459.117 212.16 451.283 209.675 445.852 204.915L443.875 207.171C450.032 212.568 458.67 215.16 469.57 215.16V212.16ZM445.865 204.927C440.512 200.121 437.77 193.431 437.77 184.656H434.77C434.77 194.111 437.757 201.679 443.861 207.159L445.865 204.927ZM452.543 185.047C452.543 189.283 453.431 192.863 455.344 195.66L457.82 193.965C456.348 191.814 455.543 188.884 455.543 185.047H452.543ZM455.355 195.675C457.268 198.398 459.932 200.162 463.264 200.959L463.962 198.041C461.305 197.406 459.281 196.045 457.809 193.95L455.355 195.675ZM463.295 200.966C466.4 201.641 469.633 201.977 472.988 201.977V198.977C469.834 198.977 466.816 198.661 463.932 198.034L463.295 200.966ZM472.988 201.977C478.099 201.977 482.959 201.479 487.565 200.477L486.927 197.546C482.549 198.498 477.904 198.977 472.988 198.977V201.977ZM487.565 200.477C492.381 199.43 497.227 196.699 502.102 192.425L500.124 190.169C495.495 194.228 491.095 196.64 486.927 197.546L487.565 200.477ZM502.613 191.297V162.488H499.613V191.297H502.613ZM501.002 160.992C487.846 161.969 478.355 163.18 472.617 164.648L473.36 167.555C478.82 166.158 488.079 164.96 501.224 163.984L501.002 160.992ZM472.632 164.644C466.816 166.065 462.005 168.588 458.266 172.258L460.367 174.399C463.659 171.167 467.962 168.873 473.344 167.559L472.632 164.644ZM458.276 172.248C454.5 175.884 452.543 180.168 452.543 185.047H455.543C455.543 181.071 457.102 177.543 460.357 174.409L458.276 172.248ZM551.895 122.84L550.7 121.932L550.699 121.934L551.895 122.84ZM610.879 113.465L610.033 114.704L610.042 114.71L610.05 114.715L610.879 113.465ZM622.988 124.891L621.721 125.693L621.723 125.696L622.988 124.891ZM622.109 130.066L622.928 131.324L622.935 131.319L622.941 131.314L622.109 130.066ZM615.957 134.07L615.139 132.813L615.118 132.827L615.097 132.841L615.957 134.07ZM610.098 131.434L611.37 130.639L611.367 130.634L610.098 131.434ZM602.09 123.719L601.286 124.985L601.297 124.992L602.09 123.719ZM603.359 196.863L604.229 198.085L604.236 198.08L604.243 198.076L603.359 196.863ZM611.758 187.781L610.445 187.055L610.442 187.062L610.438 187.069L611.758 187.781ZM617.52 185.145L616.742 186.427L616.751 186.432L617.52 185.145ZM624.062 189.051L624.834 187.765L624.831 187.763L624.062 189.051ZM624.941 194.324L623.646 193.568L623.645 193.57L624.941 194.324ZM613.809 206.141L614.796 207.269L614.797 207.269L613.809 206.141ZM551.895 198.719L550.696 199.621L550.703 199.63L551.895 198.719ZM542.066 160.73C542.066 145.683 545.776 133.392 553.09 123.746L550.699 121.934C542.908 132.209 539.066 145.179 539.066 160.73H542.066ZM553.089 123.747C560.354 114.184 571.476 109.301 586.758 109.301V106.301C570.789 106.301 558.669 111.443 550.7 121.932L553.089 123.747ZM586.758 109.301C597.163 109.301 604.854 111.17 610.033 114.704L611.724 112.226C605.836 108.208 597.447 106.301 586.758 106.301V109.301ZM610.05 114.715C615.546 118.358 619.399 122.027 621.721 125.693L624.256 124.088C621.629 119.942 617.409 115.994 611.708 112.215L610.05 114.715ZM621.723 125.696C622.296 126.597 622.376 127.185 622.315 127.545C622.259 127.875 622.032 128.315 621.277 128.818L622.941 131.314C624.14 130.516 625.036 129.442 625.273 128.047C625.505 126.681 625.047 125.332 624.254 124.085L621.723 125.696ZM621.291 128.809L615.139 132.813L616.775 135.328L622.928 131.324L621.291 128.809ZM615.097 132.841C614.494 133.263 614.075 133.263 613.643 133.069C613.07 132.811 612.289 132.11 611.37 130.639L608.826 132.229C609.859 133.882 611.032 135.184 612.412 135.804C613.932 136.489 615.466 136.245 616.817 135.299L615.097 132.841ZM611.367 130.634C609.341 127.421 606.497 124.696 602.883 122.445L601.297 124.992C604.584 127.038 607.078 129.457 608.829 132.234L611.367 130.634ZM602.894 122.452C599.152 120.078 593.701 118.996 586.758 118.996V121.996C593.487 121.996 598.257 123.063 601.286 124.985L602.894 122.452ZM586.758 118.996C577.413 118.996 570.044 122.471 564.85 129.465L567.259 131.254C571.831 125.097 578.264 121.996 586.758 121.996V118.996ZM564.85 129.465C559.685 136.421 557.23 146.932 557.23 160.73H560.23C560.23 147.185 562.659 137.448 567.259 131.254L564.85 129.465ZM557.23 160.73C557.23 174.529 559.685 185.039 564.85 191.996L567.259 190.207C562.659 184.013 560.23 174.276 560.23 160.73H557.23ZM564.85 191.996C570.044 198.99 577.413 202.465 586.758 202.465V199.465C578.264 199.465 571.831 196.364 567.259 190.207L564.85 191.996ZM586.758 202.465C594.141 202.465 600.031 201.074 604.229 198.085L602.489 195.641C599.005 198.122 593.828 199.465 586.758 199.465V202.465ZM604.243 198.076C608.215 195.18 611.188 191.994 613.078 188.494L610.438 187.069C608.812 190.079 606.186 192.947 602.476 195.651L604.243 198.076ZM613.07 188.507C613.854 187.09 614.56 186.435 615.092 186.191C615.51 186 616 185.978 616.742 186.427L618.297 183.862C616.89 183.009 615.346 182.776 613.844 183.463C612.455 184.098 611.354 185.412 610.445 187.055L613.07 188.507ZM616.751 186.432L623.294 190.339L624.831 187.763L618.288 183.857L616.751 186.432ZM623.291 190.337C624.003 190.765 624.212 191.164 624.267 191.495C624.333 191.888 624.241 192.548 623.646 193.568L626.237 195.08C627.009 193.757 627.454 192.366 627.227 191.001C626.989 189.574 626.075 188.509 624.834 187.765L623.291 190.337ZM623.645 193.57C622.153 196.136 618.614 199.934 612.82 205.013L614.797 207.269C620.591 202.191 624.475 198.111 626.238 195.078L623.645 193.57ZM612.821 205.012C607.49 209.676 598.91 212.16 586.758 212.16V215.16C599.215 215.16 608.669 212.631 614.796 207.269L612.821 205.012ZM586.758 212.16C571.473 212.16 560.35 207.307 553.086 197.808L550.703 199.63C558.673 210.053 570.793 215.16 586.758 215.16V212.16ZM553.093 197.816C545.776 188.103 542.066 175.777 542.066 160.73H539.066C539.066 176.283 542.909 189.282 550.696 199.621L553.093 197.816ZM652.871 122.156L651.725 121.189L652.871 122.156ZM718.594 120.984L717.497 122.008L717.505 122.016L718.594 120.984ZM658.926 167.273V165.773H657.288L657.432 167.405L658.926 167.273ZM669.082 193.543L668.095 194.673L668.103 194.679L669.082 193.543ZM714.59 189.539L715.782 190.449L715.783 190.448L714.59 189.539ZM720.645 187.977L719.662 189.11L719.664 189.111L720.645 187.977ZM726.406 192.957L727.391 191.825L727.387 191.822L726.406 192.957ZM726.406 198.328L725.153 197.504L725.152 197.506L726.406 198.328ZM715.762 207.41L714.892 206.188L714.886 206.192L715.762 207.41ZM652.285 199.305L651.115 200.244L651.119 200.248L652.285 199.305ZM658.535 154.578L657.04 154.464L656.916 156.078H658.535V154.578ZM713.711 154.578V156.078H715.254L715.21 154.535L713.711 154.578ZM706.68 130.652L705.417 131.462L705.421 131.468L706.68 130.652ZM667.91 127.918L668.944 129.005L668.951 128.998L667.91 127.918ZM642.262 160.73C642.262 144.834 646.232 132.353 654.018 123.123L651.725 121.189C643.364 131.1 639.262 144.335 639.262 160.73H642.262ZM654.018 123.123C661.748 113.959 672.844 109.301 687.539 109.301V106.301C672.156 106.301 660.14 111.213 651.725 121.189L654.018 123.123ZM687.539 109.301C699.642 109.301 709.59 113.536 717.497 122.008L719.69 119.961C711.191 110.855 700.436 106.301 687.539 106.301V109.301ZM717.505 122.016C725.389 130.335 729.496 143.838 729.496 162.879H732.496C732.496 143.509 728.335 129.081 719.682 119.953L717.505 122.016ZM729.496 162.879C729.496 164.145 729.205 164.815 728.886 165.165C728.592 165.487 728.058 165.773 726.992 165.773V168.773C728.596 168.773 730.063 168.327 731.104 167.185C732.12 166.07 732.496 164.542 732.496 162.879H729.496ZM726.992 165.773H658.926V168.773H726.992V165.773ZM657.432 167.405C658.551 180.111 661.996 189.345 668.095 194.673L670.069 192.413C664.84 187.846 661.514 179.566 660.42 167.142L657.432 167.405ZM668.103 194.679C674.026 199.785 680.782 202.367 688.32 202.367V199.367C681.535 199.367 675.466 197.066 670.061 192.407L668.103 194.679ZM688.32 202.367C696.004 202.367 702.125 201.082 706.502 198.328L704.904 195.789C701.209 198.114 695.74 199.367 688.32 199.367V202.367ZM706.502 198.328C710.618 195.739 713.744 193.12 715.782 190.449L713.397 188.629C711.66 190.906 708.861 193.3 704.904 195.789L706.502 198.328ZM715.783 190.448C716.742 189.189 717.51 188.687 718.041 188.55C718.456 188.443 718.957 188.499 719.662 189.11L721.627 186.843C720.379 185.761 718.894 185.232 717.291 185.645C715.804 186.029 714.521 187.155 713.397 188.63L715.783 190.448ZM719.664 189.111L725.425 194.092L727.387 191.822L721.625 186.842L719.664 189.111ZM725.422 194.089C725.883 194.49 726.029 194.865 726.029 195.276C726.029 195.763 725.819 196.491 725.153 197.504L727.66 199.152C728.491 197.887 729.029 196.58 729.029 195.276C729.029 193.897 728.427 192.726 727.391 191.825L725.422 194.089ZM725.152 197.506C724.657 198.261 723.599 199.376 721.844 200.874C720.116 202.348 717.803 204.118 714.892 206.188L716.631 208.633C719.58 206.536 721.971 204.709 723.791 203.156C725.584 201.626 726.919 200.283 727.661 199.15L725.152 197.506ZM714.886 206.192C709.476 210.083 700.715 212.16 688.32 212.16V215.16C700.925 215.16 710.459 213.071 716.637 208.628L714.886 206.192ZM688.32 212.16C672.341 212.16 660.828 207.474 653.451 198.361L651.119 200.248C659.237 210.276 671.748 215.16 688.32 215.16V212.16ZM653.455 198.366C646.046 189.135 642.262 176.643 642.262 160.73H639.262C639.262 177.109 643.16 190.333 651.115 200.244L653.455 198.366ZM658.535 156.078H713.711V153.078H658.535V156.078ZM715.21 154.535C714.943 145.18 712.533 136.93 707.939 129.837L705.421 131.468C709.681 138.046 711.958 145.747 712.212 154.621L715.21 154.535ZM707.942 129.842C703.224 122.487 696.223 118.801 687.148 118.801V121.801C695.261 121.801 701.282 125.016 705.417 131.462L707.942 129.842ZM687.148 118.801C679.222 118.801 672.432 121.481 666.87 126.837L668.951 128.998C673.935 124.199 679.971 121.801 687.148 121.801V118.801ZM666.877 126.831C661.193 132.234 658.025 141.589 657.04 154.464L660.031 154.693C660.999 142.047 664.08 133.628 668.944 129.005L666.877 126.831ZM845.938 128.992L846.92 130.125L846.927 130.12L845.938 128.992ZM827.383 138.758L827.141 137.277L825.883 137.483V138.758H827.383ZM827.383 139.051H825.883V140.423L827.25 140.545L827.383 139.051ZM849.355 148.914L848.462 150.119L848.473 150.127L849.355 148.914ZM849.258 200.867L848.251 199.755L848.247 199.759L849.258 200.867ZM775.039 195.984H773.539V197.484H775.039V195.984ZM831.582 153.797L830.744 155.041L830.75 155.045L831.582 153.797ZM775.039 147.156V145.656H773.539V147.156H775.039ZM775.039 133.094H773.539V134.594H775.039V133.094ZM826.113 126.16L826.953 127.403L826.956 127.401L826.113 126.16ZM775.039 87.9766V86.4766H773.539V87.9766H775.039ZM761.172 210.5C759.814 210.5 759.061 210.133 758.62 209.648C758.154 209.136 757.789 208.222 757.789 206.629H754.789C754.789 208.617 755.238 210.388 756.4 211.666C757.587 212.972 759.274 213.5 761.172 213.5V210.5ZM757.789 206.629V77.332H754.789V206.629H757.789ZM757.789 77.332C757.789 75.7394 758.154 74.8249 758.62 74.3127C759.061 73.8277 759.814 73.4609 761.172 73.4609V70.4609C759.274 70.4609 757.587 70.9894 756.4 72.2947C755.238 73.5729 754.789 75.3439 754.789 77.332H757.789ZM761.172 73.4609H799.258V70.4609H761.172V73.4609ZM799.258 73.4609C810.255 73.4609 819.389 74.3514 826.691 76.105C834.002 77.8609 839.377 80.4588 842.962 83.8003L845.007 81.6059C840.909 77.7859 834.989 75.0128 827.391 73.188C819.784 71.3609 810.396 70.4609 799.258 70.4609V73.4609ZM842.962 83.8003C850.354 90.6911 854.008 98.9257 854.008 108.582H857.008C857.008 98.056 852.98 89.0381 845.007 81.6059L842.962 83.8003ZM854.008 108.582C854.008 116.13 851.026 122.531 844.948 127.865L846.927 130.12C853.61 124.255 857.008 117.05 857.008 108.582H854.008ZM844.955 127.859C838.706 133.279 832.769 136.36 827.141 137.277L827.624 140.238C833.976 139.203 840.409 135.773 846.92 130.125L844.955 127.859ZM825.883 138.758V139.051H828.883V138.758H825.883ZM827.25 140.545C833.442 141.097 840.503 144.214 848.462 150.119L850.249 147.709C842.062 141.635 834.475 138.177 827.516 137.557L827.25 140.545ZM848.473 150.127C856.216 155.764 860.062 163.382 860.062 173.133H863.062C863.062 162.441 858.771 153.913 850.238 147.701L848.473 150.127ZM860.062 173.133C860.062 183.777 856.14 192.618 848.251 199.755L850.264 201.979C858.782 194.273 863.062 184.624 863.062 173.133H860.062ZM848.247 199.759C840.554 206.775 826.025 210.5 804.141 210.5V213.5C826.136 213.5 841.686 209.803 850.269 201.975L848.247 199.759ZM804.141 210.5H761.172V213.5H804.141V210.5ZM775.039 197.484H801.016V194.484H775.039V197.484ZM801.016 197.484C815.075 197.484 825.635 195.762 832.48 192.134L831.075 189.483C824.899 192.756 814.951 194.484 801.016 194.484V197.484ZM832.48 192.134C839.581 188.37 843.043 181.703 843.043 172.547H840.043C840.043 180.839 836.995 186.346 831.075 189.483L832.48 192.134ZM843.043 172.547C843.043 163.979 839.478 157.258 832.414 152.549L830.75 155.045C836.968 159.19 840.043 164.969 840.043 172.547H843.043ZM832.42 152.553C825.473 147.876 814.921 145.656 801.016 145.656V148.656C814.714 148.656 824.54 150.864 830.744 155.041L832.42 152.553ZM801.016 145.656H775.039V148.656H801.016V145.656ZM773.539 147.156V195.984H776.539V147.156H773.539ZM775.039 134.594H799.551V131.594H775.039V134.594ZM799.551 134.594C810.629 134.594 819.802 132.239 826.953 127.403L825.273 124.918C818.753 129.326 810.217 131.594 799.551 131.594V134.594ZM826.956 127.401C834.18 122.494 837.965 116.208 837.965 108.582H834.965C834.965 115.019 831.849 120.451 825.27 124.919L826.956 127.401ZM837.965 108.582C837.965 101.426 835.184 95.8311 829.596 92.0117L827.904 94.4883C832.602 97.7001 834.965 102.327 834.965 108.582H837.965ZM829.596 92.0117C826.778 90.0851 822.825 88.7156 817.859 87.8188C812.875 86.9187 806.766 86.4766 799.551 86.4766V89.4766C806.659 89.4766 812.577 89.9133 817.326 90.771C822.093 91.632 825.579 92.8993 827.904 94.4883L829.596 92.0117ZM799.551 86.4766H775.039V89.4766H799.551V86.4766ZM773.539 87.9766V133.094H776.539V87.9766H773.539ZM909.512 195.887L908.564 197.049L908.575 197.058L909.512 195.887ZM944.082 193.445L945.214 194.43L945.22 194.423L944.082 193.445ZM950.82 199.793H952.32V198.293H950.82V199.793ZM950.43 199.793V198.293H949.763L949.316 198.788L950.43 199.793ZM893.887 203.699L892.708 204.626L892.712 204.632L893.887 203.699ZM887.477 176.258V113.855H884.477V176.258H887.477ZM887.477 113.855C887.477 112.622 887.784 111.972 888.136 111.62C888.488 111.268 889.137 110.961 890.371 110.961V107.961C888.675 107.961 887.128 108.386 886.015 109.499C884.902 110.612 884.477 112.159 884.477 113.855H887.477ZM890.371 110.961H898.77V107.961H890.371V110.961ZM898.77 110.961C900.003 110.961 900.653 111.268 901.005 111.62C901.357 111.972 901.664 112.622 901.664 113.855H904.664C904.664 112.159 904.239 110.612 903.126 109.499C902.013 108.386 900.466 107.961 898.77 107.961V110.961ZM901.664 113.855V171.57H904.664V113.855H901.664ZM901.664 171.57C901.664 178.019 902.197 183.376 903.3 187.599C904.398 191.805 906.101 195.041 908.564 197.049L910.46 194.724C908.691 193.282 907.22 190.74 906.202 186.841C905.189 182.958 904.664 177.882 904.664 171.57H901.664ZM908.575 197.058C913.112 200.688 918.699 202.465 925.234 202.465V199.465C919.27 199.465 914.375 197.856 910.449 194.715L908.575 197.058ZM925.234 202.465C933.761 202.465 940.502 199.845 945.214 194.43L942.95 192.461C938.939 197.071 933.114 199.465 925.234 199.465V202.465ZM945.22 194.423C949.944 188.923 952.125 179.803 952.125 167.469H949.125C949.125 179.613 946.944 187.811 942.944 192.468L945.22 194.423ZM952.125 167.469V113.855H949.125V167.469H952.125ZM952.125 113.855C952.125 112.622 952.432 111.972 952.784 111.62C953.136 111.268 953.786 110.961 955.02 110.961V107.961C953.323 107.961 951.776 108.386 950.663 109.499C949.55 110.612 949.125 112.159 949.125 113.855H952.125ZM955.02 110.961H963.418V107.961H955.02V110.961ZM963.418 110.961C964.652 110.961 965.301 111.268 965.653 111.62C966.005 111.972 966.312 112.622 966.312 113.855H969.312C969.312 112.159 968.887 110.612 967.775 109.499C966.662 108.386 965.114 107.961 963.418 107.961V110.961ZM966.312 113.855V207.605H969.312V113.855H966.312ZM966.312 207.605C966.312 208.839 966.005 209.489 965.653 209.841C965.301 210.193 964.652 210.5 963.418 210.5V213.5C965.114 213.5 966.662 213.075 967.775 211.962C968.887 210.849 969.312 209.302 969.312 207.605H966.312ZM963.418 210.5H955.215V213.5H963.418V210.5ZM955.215 210.5C953.981 210.5 953.331 210.193 952.98 209.841C952.628 209.489 952.32 208.839 952.32 207.605H949.32C949.32 209.302 949.745 210.849 950.858 211.962C951.971 213.075 953.519 213.5 955.215 213.5V210.5ZM952.32 207.605V199.793H949.32V207.605H952.32ZM950.82 198.293H950.43V201.293H950.82V198.293ZM949.316 198.788C945.196 203.352 940.796 206.702 936.123 208.883L937.392 211.601C942.485 209.225 947.2 205.609 951.543 200.798L949.316 198.788ZM936.123 208.883C931.49 211.045 925.763 212.16 918.887 212.16V215.16C926.073 215.16 932.26 213.997 937.392 211.601L936.123 208.883ZM918.887 212.16C907.783 212.16 899.96 208.935 895.061 202.766L892.712 204.632C898.36 211.745 907.204 215.16 918.887 215.16V212.16ZM895.066 202.772C890.064 196.411 887.477 187.63 887.477 176.258H884.477C884.477 188.063 887.163 197.576 892.708 204.626L895.066 202.772ZM1000.14 123.816L1001.4 124.623L1001.4 124.62L1000.14 123.816ZM1047.79 111.512L1048.52 110.198L1047.79 111.512ZM1059.9 121.668L1058.75 122.628L1059.2 123.168H1059.9V121.668ZM1060.1 121.668V123.168H1061.7L1061.59 121.568L1060.1 121.668ZM1060.68 207.605L1062.18 207.506L1062.18 207.493L1060.68 207.605ZM1060.1 199.793L1061.59 199.681L1061.49 198.293H1060.1V199.793ZM1059.9 199.793V198.293H1059.2L1058.75 198.833L1059.9 199.793ZM1000.14 197.742L998.87 198.546L998.872 198.549L1000.14 197.742ZM1014.3 189.832L1012.98 190.558L1012.99 190.566L1014.3 189.832ZM1052.87 193.836L1051.8 192.79L1051.8 192.79L1052.87 193.836ZM1052.87 127.723L1051.79 128.761L1051.8 128.769L1051.8 128.776L1052.87 127.723ZM1014.3 131.629L1012.99 130.895L1012.98 130.903L1014.3 131.629ZM991.48 160.73C991.48 146.986 994.801 134.968 1001.4 124.623L998.872 123.01C991.931 133.889 988.48 146.48 988.48 160.73H991.48ZM1001.4 124.62C1007.89 114.392 1017.3 109.301 1029.82 109.301V106.301C1016.31 106.301 1005.93 111.887 998.87 123.013L1001.4 124.62ZM1029.82 109.301C1037.17 109.301 1042.88 110.517 1047.07 112.826L1048.52 110.198C1043.72 107.558 1037.46 106.301 1029.82 106.301V109.301ZM1047.07 112.826C1051.38 115.202 1055.28 118.462 1058.75 122.628L1061.05 120.708C1057.37 116.28 1053.19 112.77 1048.52 110.198L1047.07 112.826ZM1059.9 123.168H1060.1V120.168H1059.9V123.168ZM1061.59 121.568C1061.47 119.649 1061.4 117.697 1061.4 115.711H1058.4C1058.4 117.761 1058.47 119.78 1058.6 121.768L1061.59 121.568ZM1061.4 115.711V72.2539H1058.4V115.711H1061.4ZM1061.4 72.2539C1061.4 71.0203 1061.71 70.3706 1062.06 70.0187C1062.41 69.6668 1063.06 69.3594 1064.3 69.3594V66.3594C1062.6 66.3594 1061.05 66.7844 1059.94 67.8973C1058.83 69.0103 1058.4 70.5578 1058.4 72.2539H1061.4ZM1064.3 69.3594H1072.7V66.3594H1064.3V69.3594ZM1072.7 69.3594C1073.93 69.3594 1074.58 69.6668 1074.93 70.0187C1075.28 70.3706 1075.59 71.0203 1075.59 72.2539H1078.59C1078.59 70.5578 1078.16 69.0103 1077.05 67.8973C1075.94 66.7844 1074.39 66.3594 1072.7 66.3594V69.3594ZM1075.59 72.2539V207.605H1078.59V72.2539H1075.59ZM1075.59 207.605C1075.59 208.839 1075.28 209.489 1074.93 209.841C1074.58 210.193 1073.93 210.5 1072.7 210.5V213.5C1074.39 213.5 1075.94 213.075 1077.05 211.962C1078.16 210.849 1078.59 209.302 1078.59 207.605H1075.59ZM1072.7 210.5H1064.49V213.5H1072.7V210.5ZM1064.49 210.5C1063.66 210.5 1063.21 210.254 1062.92 209.919C1062.58 209.531 1062.27 208.804 1062.18 207.506L1059.19 207.705C1059.3 209.337 1059.72 210.806 1060.65 211.884C1061.63 213.013 1062.98 213.5 1064.49 213.5V210.5ZM1062.18 207.493L1061.59 199.681L1058.6 199.905L1059.19 207.718L1062.18 207.493ZM1060.1 198.293H1059.9V201.293H1060.1V198.293ZM1058.75 198.833C1055.28 202.999 1051.38 206.259 1047.07 208.635L1048.52 211.263C1053.19 208.691 1057.37 205.181 1061.05 200.753L1058.75 198.833ZM1047.07 208.635C1042.88 210.944 1037.17 212.16 1029.82 212.16V215.16C1037.46 215.16 1043.72 213.903 1048.52 211.263L1047.07 208.635ZM1029.82 212.16C1017.29 212.16 1007.89 207.098 1001.4 196.935L998.872 198.549C1005.93 209.61 1016.31 215.16 1029.82 215.16V212.16ZM1001.4 196.939C994.801 186.527 991.48 174.475 991.48 160.73H988.48C988.48 174.981 991.931 187.603 998.87 198.546L1001.4 196.939ZM1006.64 160.73C1006.64 172.865 1008.72 182.841 1012.98 190.558L1015.61 189.107C1011.67 181.98 1009.64 172.555 1009.64 160.73H1006.64ZM1012.99 190.566C1017.47 198.547 1025.06 202.465 1035.39 202.465V199.465C1025.93 199.465 1019.46 195.961 1015.6 189.098L1012.99 190.566ZM1035.39 202.465C1042.8 202.465 1049.02 199.944 1053.95 194.882L1051.8 192.79C1047.47 197.233 1042.04 199.465 1035.39 199.465V202.465ZM1053.95 194.882C1059.01 189.679 1061.4 181.941 1061.4 171.961H1058.4C1058.4 181.512 1056.11 188.357 1051.8 192.79L1053.95 194.882ZM1061.4 171.961V149.5H1058.4V171.961H1061.4ZM1061.4 149.5C1061.4 139.522 1059.01 131.81 1053.94 126.669L1051.8 128.776C1056.11 133.141 1058.4 139.947 1058.4 149.5H1061.4ZM1053.95 126.684C1049.03 121.555 1042.81 118.996 1035.39 118.996V121.996C1042.04 121.996 1047.47 124.255 1051.79 128.761L1053.95 126.684ZM1035.39 118.996C1025.06 118.996 1017.47 122.914 1012.99 130.895L1015.6 132.363C1019.46 125.5 1025.93 121.996 1035.39 121.996V118.996ZM1012.98 130.903C1008.72 138.62 1006.64 148.596 1006.64 160.73H1009.64C1009.64 148.906 1011.67 139.481 1015.61 132.354L1012.98 130.903ZM1109.51 123.816L1110.78 124.623L1110.78 124.62L1109.51 123.816ZM1157.17 111.512L1157.89 110.198L1157.17 111.512ZM1169.28 121.668L1168.12 122.628L1168.57 123.168H1169.28V121.668ZM1169.47 121.668V123.168H1171.08L1170.97 121.568L1169.47 121.668ZM1170.06 207.605L1171.56 207.506L1171.55 207.493L1170.06 207.605ZM1169.47 199.793L1170.97 199.681L1170.86 198.293H1169.47V199.793ZM1169.28 199.793V198.293H1168.57L1168.12 198.833L1169.28 199.793ZM1109.51 197.742L1108.24 198.546L1108.25 198.549L1109.51 197.742ZM1123.67 189.832L1122.36 190.558L1122.36 190.566L1123.67 189.832ZM1162.25 193.836L1161.17 192.79L1161.17 192.79L1162.25 193.836ZM1162.25 127.723L1161.16 128.761L1161.17 128.769L1161.18 128.776L1162.25 127.723ZM1123.67 131.629L1122.36 130.895L1122.36 130.903L1123.67 131.629ZM1100.86 160.73C1100.86 146.986 1104.18 134.968 1110.78 124.623L1108.25 123.01C1101.31 133.889 1097.86 146.48 1097.86 160.73H1100.86ZM1110.78 124.62C1117.26 114.392 1126.67 109.301 1139.2 109.301V106.301C1125.68 106.301 1115.3 111.887 1108.24 123.013L1110.78 124.62ZM1139.2 109.301C1146.54 109.301 1152.25 110.517 1156.44 112.826L1157.89 110.198C1153.1 107.558 1146.83 106.301 1139.2 106.301V109.301ZM1156.44 112.826C1160.76 115.202 1164.65 118.462 1168.12 122.628L1170.43 120.708C1166.74 116.28 1162.56 112.77 1157.89 110.198L1156.44 112.826ZM1169.28 123.168H1169.47V120.168H1169.28V123.168ZM1170.97 121.568C1170.84 119.649 1170.78 117.697 1170.78 115.711H1167.78C1167.78 117.761 1167.84 119.78 1167.98 121.768L1170.97 121.568ZM1170.78 115.711V72.2539H1167.78V115.711H1170.78ZM1170.78 72.2539C1170.78 71.0203 1171.08 70.3706 1171.44 70.0187C1171.79 69.6668 1172.44 69.3594 1173.67 69.3594V66.3594C1171.98 66.3594 1170.43 66.7844 1169.32 67.8973C1168.2 69.0103 1167.78 70.5578 1167.78 72.2539H1170.78ZM1173.67 69.3594H1182.07V66.3594H1173.67V69.3594ZM1182.07 69.3594C1183.3 69.3594 1183.95 69.6668 1184.31 70.0187C1184.66 70.3706 1184.96 71.0203 1184.96 72.2539H1187.96C1187.96 70.5578 1187.54 69.0103 1186.43 67.8973C1185.31 66.7844 1183.77 66.3594 1182.07 66.3594V69.3594ZM1184.96 72.2539V207.605H1187.96V72.2539H1184.96ZM1184.96 207.605C1184.96 208.839 1184.66 209.489 1184.31 209.841C1183.95 210.193 1183.3 210.5 1182.07 210.5V213.5C1183.77 213.5 1185.31 213.075 1186.43 211.962C1187.54 210.849 1187.96 209.302 1187.96 207.605H1184.96ZM1182.07 210.5H1173.87V213.5H1182.07V210.5ZM1173.87 210.5C1173.03 210.5 1172.58 210.254 1172.29 209.919C1171.95 209.531 1171.64 208.804 1171.56 207.506L1168.56 207.705C1168.67 209.337 1169.09 210.806 1170.02 211.884C1171 213.013 1172.36 213.5 1173.87 213.5V210.5ZM1171.55 207.493L1170.97 199.681L1167.98 199.905L1168.56 207.718L1171.55 207.493ZM1169.47 198.293H1169.28V201.293H1169.47V198.293ZM1168.12 198.833C1164.65 202.999 1160.76 206.259 1156.44 208.635L1157.89 211.263C1162.56 208.691 1166.74 205.181 1170.43 200.753L1168.12 198.833ZM1156.44 208.635C1152.25 210.944 1146.54 212.16 1139.2 212.16V215.16C1146.83 215.16 1153.1 213.903 1157.89 211.263L1156.44 208.635ZM1139.2 212.16C1126.67 212.16 1117.26 207.098 1110.78 196.935L1108.25 198.549C1115.3 209.61 1125.69 215.16 1139.2 215.16V212.16ZM1110.78 196.939C1104.18 186.527 1100.86 174.475 1100.86 160.73H1097.86C1097.86 174.981 1101.31 187.603 1108.24 198.546L1110.78 196.939ZM1116.02 160.73C1116.02 172.865 1118.09 182.841 1122.36 190.558L1124.98 189.107C1121.05 181.98 1119.02 172.555 1119.02 160.73H1116.02ZM1122.36 190.566C1126.84 198.547 1134.43 202.465 1144.77 202.465V199.465C1135.31 199.465 1128.83 195.961 1124.98 189.098L1122.36 190.566ZM1144.77 202.465C1152.17 202.465 1158.4 199.944 1163.32 194.882L1161.17 192.79C1156.85 197.233 1151.42 199.465 1144.77 199.465V202.465ZM1163.32 194.882C1168.38 189.679 1170.78 181.941 1170.78 171.961H1167.78C1167.78 181.512 1165.48 188.357 1161.17 192.79L1163.32 194.882ZM1170.78 171.961V149.5H1167.78V171.961H1170.78ZM1170.78 149.5C1170.78 139.522 1168.38 131.81 1163.31 126.669L1161.18 128.776C1165.48 133.141 1167.78 139.947 1167.78 149.5H1170.78ZM1163.33 126.684C1158.41 121.555 1152.18 118.996 1144.77 118.996V121.996C1151.41 121.996 1156.84 124.255 1161.16 128.761L1163.33 126.684ZM1144.77 118.996C1134.43 118.996 1126.84 122.914 1122.36 130.895L1124.98 132.363C1128.83 125.5 1135.31 121.996 1144.77 121.996V118.996ZM1122.36 130.903C1118.09 138.62 1116.02 148.596 1116.02 160.73H1119.02C1119.02 148.906 1121.05 139.481 1124.98 132.354L1122.36 130.903ZM1218.69 210.5C1217.46 210.5 1216.81 210.193 1216.46 209.841C1216.1 209.489 1215.8 208.839 1215.8 207.605H1212.8C1212.8 209.302 1213.22 210.849 1214.33 211.962C1215.45 213.075 1217 213.5 1218.69 213.5V210.5ZM1215.8 207.605V113.855H1212.8V207.605H1215.8ZM1215.8 113.855C1215.8 112.622 1216.1 111.972 1216.46 111.62C1216.81 111.268 1217.46 110.961 1218.69 110.961V107.961C1217 107.961 1215.45 108.386 1214.33 109.499C1213.22 110.612 1212.8 112.159 1212.8 113.855H1215.8ZM1218.69 110.961H1227.09V107.961H1218.69V110.961ZM1227.09 110.961C1228.32 110.961 1228.97 111.268 1229.33 111.62C1229.68 111.972 1229.98 112.622 1229.98 113.855H1232.98C1232.98 112.159 1232.56 110.612 1231.45 109.499C1230.33 108.386 1228.79 107.961 1227.09 107.961V110.961ZM1229.98 113.855V207.605H1232.98V113.855H1229.98ZM1229.98 207.605C1229.98 208.839 1229.68 209.489 1229.33 209.841C1228.97 210.193 1228.32 210.5 1227.09 210.5V213.5C1228.79 213.5 1230.33 213.075 1231.45 211.962C1232.56 210.849 1232.98 209.302 1232.98 207.605H1229.98ZM1227.09 210.5H1218.69V213.5H1227.09V210.5ZM1218.69 89.4062C1217.46 89.4062 1216.81 89.0989 1216.46 88.747C1216.1 88.3951 1215.8 87.7453 1215.8 86.5117H1212.8C1212.8 88.2078 1213.22 89.7553 1214.33 90.8683C1215.45 91.9812 1217 92.4062 1218.69 92.4062V89.4062ZM1215.8 86.5117V78.1133H1212.8V86.5117H1215.8ZM1215.8 78.1133C1215.8 76.8797 1216.1 76.2299 1216.46 75.878C1216.81 75.5261 1217.46 75.2188 1218.69 75.2188V72.2188C1217 72.2188 1215.45 72.6438 1214.33 73.7567C1213.22 74.8697 1212.8 76.4172 1212.8 78.1133H1215.8ZM1218.69 75.2188H1227.09V72.2188H1218.69V75.2188ZM1227.09 75.2188C1228.32 75.2188 1228.97 75.5261 1229.33 75.878C1229.68 76.2299 1229.98 76.8797 1229.98 78.1133H1232.98C1232.98 76.4172 1232.56 74.8697 1231.45 73.7567C1230.33 72.6438 1228.79 72.2188 1227.09 72.2188V75.2188ZM1229.98 78.1133V86.5117H1232.98V78.1133H1229.98ZM1229.98 86.5117C1229.98 87.7453 1229.68 88.3951 1229.33 88.747C1228.97 89.0989 1228.32 89.4062 1227.09 89.4062V92.4062C1228.79 92.4062 1230.33 91.9812 1231.45 90.8683C1232.56 89.7553 1232.98 88.2078 1232.98 86.5117H1229.98ZM1227.09 89.4062H1218.69V92.4062H1227.09V89.4062ZM1265.76 122.156L1264.62 121.189L1265.76 122.156ZM1331.48 120.984L1330.39 122.008L1330.4 122.016L1331.48 120.984ZM1271.82 167.273V165.773H1270.18L1270.32 167.405L1271.82 167.273ZM1281.97 193.543L1280.99 194.673L1280.99 194.679L1281.97 193.543ZM1327.48 189.539L1328.67 190.449L1328.67 190.448L1327.48 189.539ZM1333.54 187.977L1332.55 189.11L1332.55 189.111L1333.54 187.977ZM1339.3 192.957L1340.28 191.825L1340.28 191.822L1339.3 192.957ZM1339.3 198.328L1338.04 197.504L1338.04 197.506L1339.3 198.328ZM1328.65 207.41L1327.78 206.188L1327.78 206.192L1328.65 207.41ZM1265.18 199.305L1264.01 200.244L1264.01 200.248L1265.18 199.305ZM1271.43 154.578L1269.93 154.464L1269.81 156.078H1271.43V154.578ZM1326.6 154.578V156.078H1328.15L1328.1 154.535L1326.6 154.578ZM1319.57 130.652L1318.31 131.462L1318.31 131.468L1319.57 130.652ZM1280.8 127.918L1281.83 129.005L1281.84 128.998L1280.8 127.918ZM1255.15 160.73C1255.15 144.834 1259.12 132.353 1266.91 123.123L1264.62 121.189C1256.25 131.1 1252.15 144.335 1252.15 160.73H1255.15ZM1266.91 123.123C1274.64 113.959 1285.73 109.301 1300.43 109.301V106.301C1285.05 106.301 1273.03 111.213 1264.62 121.189L1266.91 123.123ZM1300.43 109.301C1312.53 109.301 1322.48 113.536 1330.39 122.008L1332.58 119.961C1324.08 110.855 1313.33 106.301 1300.43 106.301V109.301ZM1330.4 122.016C1338.28 130.335 1342.39 143.838 1342.39 162.879H1345.39C1345.39 143.509 1341.23 129.081 1332.57 119.953L1330.4 122.016ZM1342.39 162.879C1342.39 164.145 1342.1 164.815 1341.78 165.165C1341.48 165.487 1340.95 165.773 1339.88 165.773V168.773C1341.49 168.773 1342.95 168.327 1343.99 167.185C1345.01 166.07 1345.39 164.542 1345.39 162.879H1342.39ZM1339.88 165.773H1271.82V168.773H1339.88V165.773ZM1270.32 167.405C1271.44 180.111 1274.89 189.345 1280.99 194.673L1282.96 192.413C1277.73 187.846 1274.4 179.566 1273.31 167.142L1270.32 167.405ZM1280.99 194.679C1286.92 199.785 1293.67 202.367 1301.21 202.367V199.367C1294.43 199.367 1288.36 197.066 1282.95 192.407L1280.99 194.679ZM1301.21 202.367C1308.9 202.367 1315.02 201.082 1319.39 198.328L1317.8 195.789C1314.1 198.114 1308.63 199.367 1301.21 199.367V202.367ZM1319.39 198.328C1323.51 195.739 1326.63 193.12 1328.67 190.449L1326.29 188.629C1324.55 190.906 1321.75 193.3 1317.8 195.789L1319.39 198.328ZM1328.67 190.448C1329.63 189.189 1330.4 188.687 1330.93 188.55C1331.35 188.443 1331.85 188.499 1332.55 189.11L1334.52 186.843C1333.27 185.761 1331.78 185.232 1330.18 185.645C1328.69 186.029 1327.41 187.155 1326.29 188.63L1328.67 190.448ZM1332.55 189.111L1338.32 194.092L1340.28 191.822L1334.52 186.842L1332.55 189.111ZM1338.31 194.089C1338.77 194.49 1338.92 194.865 1338.92 195.276C1338.92 195.763 1338.71 196.491 1338.04 197.504L1340.55 199.152C1341.38 197.887 1341.92 196.58 1341.92 195.276C1341.92 193.897 1341.32 192.726 1340.28 191.825L1338.31 194.089ZM1338.04 197.506C1337.55 198.261 1336.49 199.376 1334.73 200.874C1333.01 202.348 1330.69 204.118 1327.78 206.188L1329.52 208.633C1332.47 206.536 1334.86 204.709 1336.68 203.156C1338.47 201.626 1339.81 200.283 1340.55 199.15L1338.04 197.506ZM1327.78 206.192C1322.37 210.083 1313.61 212.16 1301.21 212.16V215.16C1313.82 215.16 1323.35 213.071 1329.53 208.628L1327.78 206.192ZM1301.21 212.16C1285.23 212.16 1273.72 207.474 1266.34 198.361L1264.01 200.248C1272.13 210.276 1284.64 215.16 1301.21 215.16V212.16ZM1266.35 198.366C1258.94 189.135 1255.15 176.643 1255.15 160.73H1252.15C1252.15 177.109 1256.05 190.333 1264.01 200.244L1266.35 198.366ZM1271.43 156.078H1326.6V153.078H1271.43V156.078ZM1328.1 154.535C1327.83 145.18 1325.42 136.93 1320.83 129.837L1318.31 131.468C1322.57 138.046 1324.85 145.747 1325.1 154.621L1328.1 154.535ZM1320.83 129.842C1316.11 122.487 1309.11 118.801 1300.04 118.801V121.801C1308.15 121.801 1314.17 125.016 1318.31 131.462L1320.83 129.842ZM1300.04 118.801C1292.11 118.801 1285.32 121.481 1279.76 126.837L1281.84 128.998C1286.83 124.199 1292.86 121.801 1300.04 121.801V118.801ZM1279.77 126.831C1274.08 132.234 1270.92 141.589 1269.93 154.464L1272.92 154.693C1273.89 142.047 1276.97 133.628 1281.83 129.005L1279.77 126.831ZM1362.44 202.43L1363.48 201.352L1363.48 201.343L1363.47 201.334L1362.44 202.43ZM1361.17 197.156L1362.39 198.033L1362.39 198.028L1361.17 197.156ZM1365.57 191.004L1364.36 190.117L1364.35 190.124L1364.35 190.132L1365.57 191.004ZM1371.91 191.297L1371 192.487L1371 192.49L1371.91 191.297ZM1384.71 198.328L1384.18 199.733L1384.19 199.735L1384.71 198.328ZM1410.49 199.695L1410.92 201.131L1410.94 201.127L1410.95 201.122L1410.49 199.695ZM1417.81 194.715L1416.69 193.716L1416.69 193.725L1416.68 193.734L1417.81 194.715ZM1419.47 178.406L1418.11 179.043L1418.12 179.06L1418.13 179.077L1419.47 178.406ZM1414.79 173.426L1413.99 174.698L1414.01 174.712L1414.04 174.726L1414.79 173.426ZM1408.63 170.398L1408.11 171.804L1408.12 171.808L1408.13 171.812L1408.63 170.398ZM1398.67 167.371L1398.29 168.823L1398.31 168.827L1398.33 168.831L1398.67 167.371ZM1385.78 163.562L1386.23 162.133L1386.22 162.129L1385.78 163.562ZM1375.62 158.875L1374.8 160.131L1374.81 160.137L1374.82 160.143L1375.62 158.875ZM1367.23 150.477L1365.98 151.309L1365.98 151.317L1365.99 151.324L1367.23 150.477ZM1369.47 119.617L1368.33 118.65L1369.47 119.617ZM1383.93 110.34L1384.33 111.784L1384.34 111.782L1384.35 111.78L1383.93 110.34ZM1420.25 110.633L1419.71 112.032L1419.72 112.036L1419.74 112.04L1420.25 110.633ZM1433.05 117.176L1433.92 115.958L1433.91 115.952L1433.05 117.176ZM1433.93 122.352L1432.74 121.439L1432.73 121.445L1432.73 121.452L1433.93 122.352ZM1429.53 128.211L1428.33 127.311L1428.32 127.321L1428.32 127.331L1429.53 128.211ZM1423.18 128.016L1424.05 126.789L1424.05 126.788L1423.18 128.016ZM1412.93 123.23L1412.45 124.651L1412.93 123.23ZM1383.63 127.039L1382.47 126.086L1383.63 127.039ZM1381.97 141.004L1380.58 141.552L1380.58 141.561L1380.58 141.57L1381.97 141.004ZM1394.18 149.5L1394.56 148.049L1394.56 148.048L1394.18 149.5ZM1409.12 153.406L1408.74 154.858L1408.75 154.859L1409.12 153.406ZM1421.43 157.703L1422.06 156.343L1422.06 156.343L1421.43 157.703ZM1432.36 165.027L1431.28 166.061L1431.28 166.068L1431.29 166.075L1432.36 165.027ZM1437.73 173.719L1436.3 174.166L1436.31 174.175L1437.73 173.719ZM1432.95 201.648L1431.81 200.667L1431.81 200.676L1432.95 201.648ZM1419.18 211.316L1419.62 212.75L1419.63 212.747L1419.64 212.745L1419.18 211.316ZM1375.82 209.559L1375.26 210.949L1375.26 210.952L1375.27 210.955L1375.82 209.559ZM1363.47 201.334C1362.57 200.492 1362.18 199.824 1362.07 199.344C1361.97 198.94 1362.03 198.535 1362.39 198.033L1359.95 196.28C1359.14 197.405 1358.83 198.693 1359.15 200.046C1359.46 201.324 1360.3 202.479 1361.42 203.525L1363.47 201.334ZM1362.39 198.028L1366.79 191.876L1364.35 190.132L1359.95 196.284L1362.39 198.028ZM1366.78 191.891C1367.24 191.252 1367.68 191.089 1368.16 191.111C1368.77 191.139 1369.7 191.487 1371 192.487L1372.83 190.107C1371.33 188.958 1369.8 188.183 1368.3 188.114C1366.66 188.038 1365.32 188.803 1364.36 190.117L1366.78 191.891ZM1371 192.49C1374.97 195.511 1379.36 197.925 1384.18 199.733L1385.23 196.924C1380.68 195.215 1376.54 192.942 1372.82 190.104L1371 192.49ZM1384.19 199.735C1389.13 201.565 1394.72 202.465 1400.92 202.465V199.465C1395.01 199.465 1389.78 198.607 1385.23 196.921L1384.19 199.735ZM1400.92 202.465C1404.61 202.465 1407.95 202.028 1410.92 201.131L1410.05 198.259C1407.42 199.055 1404.38 199.465 1400.92 199.465V202.465ZM1410.95 201.122C1414.03 200.119 1416.7 198.294 1418.95 195.696L1416.68 193.734C1414.76 195.953 1412.54 197.449 1410.02 198.269L1410.95 201.122ZM1418.93 195.713C1421.38 192.966 1422.54 189.356 1422.54 185.047H1419.54C1419.54 188.811 1418.54 191.646 1416.69 193.716L1418.93 195.713ZM1422.54 185.047C1422.54 182.472 1421.96 180.028 1420.81 177.735L1418.13 179.077C1419.07 180.951 1419.54 182.934 1419.54 185.047H1422.54ZM1420.83 177.77C1419.71 175.386 1417.93 173.504 1415.53 172.126L1414.04 174.726C1415.94 175.822 1417.28 177.26 1418.11 179.043L1420.83 177.77ZM1415.58 172.154C1413.42 170.802 1411.27 169.742 1409.13 168.985L1408.13 171.812C1410.03 172.487 1411.99 173.445 1413.99 174.698L1415.58 172.154ZM1409.16 168.993C1405.78 167.735 1402.4 166.707 1399.02 165.911L1398.33 168.831C1401.59 169.598 1404.85 170.588 1408.11 171.804L1409.16 168.993ZM1399.05 165.919C1395.83 165.083 1391.56 163.822 1386.23 162.133L1385.33 164.992C1390.68 166.689 1395 167.967 1398.29 168.823L1399.05 165.919ZM1386.22 162.129C1382.77 161.062 1379.51 159.555 1376.43 157.607L1374.82 160.143C1378.12 162.231 1381.63 163.849 1385.34 164.996L1386.22 162.129ZM1376.45 157.619C1373.44 155.655 1370.77 153.002 1368.46 149.629L1365.99 151.324C1368.5 154.983 1371.43 157.928 1374.8 160.131L1376.45 157.619ZM1368.47 149.645C1366.35 146.465 1365.21 141.945 1365.21 135.926H1362.21C1362.21 142.277 1363.41 147.457 1365.98 151.309L1368.47 149.645ZM1365.21 135.926C1365.21 129.942 1367.02 124.854 1370.62 120.584L1368.33 118.65C1364.24 123.495 1362.21 129.28 1362.21 135.926H1365.21ZM1370.62 120.584C1374.27 116.259 1378.82 113.331 1384.33 111.784L1383.52 108.896C1377.44 110.604 1372.36 113.861 1368.33 118.65L1370.62 120.584ZM1384.35 111.78C1390.02 110.123 1395.51 109.301 1400.82 109.301V106.301C1395.2 106.301 1389.42 107.172 1383.51 108.9L1384.35 111.78ZM1400.82 109.301C1408.8 109.301 1415.07 110.237 1419.71 112.032L1420.79 109.234C1415.67 107.253 1408.99 106.301 1400.82 106.301V109.301ZM1419.74 112.04C1424.58 113.826 1428.73 115.95 1432.18 118.399L1433.91 115.952C1430.21 113.323 1425.82 111.085 1420.77 109.225L1419.74 112.04ZM1432.17 118.394C1433.04 119.019 1433.3 119.52 1433.35 119.844C1433.4 120.151 1433.34 120.655 1432.74 121.439L1435.12 123.264C1436.01 122.095 1436.55 120.76 1436.31 119.342C1436.07 117.94 1435.14 116.83 1433.92 115.958L1432.17 118.394ZM1432.73 121.452L1428.33 127.311L1430.73 129.111L1435.13 123.252L1432.73 121.452ZM1428.32 127.331C1427.89 127.92 1427.47 128.094 1426.97 128.079C1426.34 128.059 1425.38 127.729 1424.05 126.789L1422.32 129.242C1423.85 130.32 1425.39 131.032 1426.87 131.077C1428.48 131.127 1429.81 130.39 1430.75 129.091L1428.32 127.331ZM1424.05 126.788C1421.47 124.979 1417.9 123.329 1413.41 121.81L1412.45 124.651C1416.81 126.126 1420.08 127.666 1422.32 129.243L1424.05 126.788ZM1413.41 121.81C1408.89 120.279 1404.84 119.484 1401.31 119.484V122.484C1404.41 122.484 1408.12 123.187 1412.45 124.651L1413.41 121.81ZM1401.31 119.484C1397.1 119.484 1393.43 119.951 1390.32 120.919L1391.21 123.784C1393.95 122.929 1397.31 122.484 1401.31 122.484V119.484ZM1390.32 120.919C1387.13 121.911 1384.5 123.63 1382.47 126.086L1384.79 127.993C1386.41 126.021 1388.54 124.615 1391.21 123.784L1390.32 120.919ZM1382.47 126.086C1380.42 128.58 1379.4 131.526 1379.4 134.852H1382.4C1382.4 132.188 1383.2 129.925 1384.79 127.993L1382.47 126.086ZM1379.4 134.852C1379.4 137.288 1379.78 139.529 1380.58 141.552L1383.37 140.455C1382.73 138.833 1382.4 136.973 1382.4 134.852H1379.4ZM1380.58 141.57C1381.43 143.637 1382.96 145.465 1385.06 147.077L1386.89 144.696C1385.09 143.314 1383.95 141.886 1383.36 140.438L1380.58 141.57ZM1385.06 147.077C1387.23 148.74 1390.18 150.012 1393.8 150.952L1394.56 148.048C1391.15 147.165 1388.63 146.028 1386.89 144.696L1385.06 147.077ZM1393.8 150.951C1399.27 152.383 1404.25 153.686 1408.74 154.858L1409.5 151.955C1405.01 150.783 1400.03 149.481 1394.56 148.049L1393.8 150.951ZM1408.75 154.859C1413.23 156.012 1417.24 157.415 1420.79 159.064L1422.06 156.343C1418.32 154.605 1414.13 153.144 1409.49 151.954L1408.75 154.859ZM1420.79 159.063C1425.44 161.228 1428.91 163.572 1431.28 166.061L1433.45 163.994C1430.74 161.144 1426.92 158.605 1422.06 156.343L1420.79 159.063ZM1431.29 166.075C1433.75 168.599 1435.41 171.296 1436.3 174.166L1439.17 173.271C1438.11 169.891 1436.18 166.795 1433.44 163.98L1431.29 166.075ZM1436.31 174.175C1437.23 177.064 1437.7 180.325 1437.7 183.973H1440.7C1440.7 180.068 1440.19 176.493 1439.16 173.263L1436.31 174.175ZM1437.7 183.973C1437.7 190.615 1435.72 196.148 1431.81 200.667L1434.08 202.63C1438.51 197.513 1440.7 191.263 1440.7 183.973H1437.7ZM1431.81 200.676C1427.85 205.321 1423.49 208.36 1418.72 209.888L1419.64 212.745C1425.03 211.017 1429.84 207.611 1434.09 202.621L1431.81 200.676ZM1418.74 209.883C1413.84 211.389 1407.88 212.16 1400.82 212.16V215.16C1408.08 215.16 1414.36 214.369 1419.62 212.75L1418.74 209.883ZM1400.82 212.16C1391.25 212.16 1383.12 210.811 1376.37 208.162L1375.27 210.955C1382.46 213.775 1390.99 215.16 1400.82 215.16V212.16ZM1376.38 208.169C1372.96 206.78 1370.17 205.508 1368.01 204.353C1365.82 203.187 1364.34 202.183 1363.48 201.352L1361.4 203.508C1362.56 204.63 1364.32 205.79 1366.59 207.001C1368.89 208.222 1371.78 209.537 1375.26 210.949L1376.38 208.169Z" fill="white"/>
    <defs>
        <linearGradient id="paint0_linear_120_72" x1="150" y1="0" x2="150" y2="300" gradientUnits="userSpaceOnUse">
            <stop stop-color="#4CBD17"/>
            <stop offset="1" stop-color="#122E04"/>
        </linearGradient>
    </defs>
</svg>
