<svg width="46" height="44" viewBox="0 0 46 44" fill="none" xmlns="http://www.w3.org/2000/svg">
    <line x1="13" y1="31.6776" x2="30.6777" y2="13.9999" stroke="white" stroke-width="2" stroke-linecap="round"/>
    <path fill-rule="evenodd" clip-rule="evenodd" d="M8.50154 2.68813C9.05139 2.4132 9.69861 2.4132 10.2485 2.68813L15.4503 5.28905C15.5603 5.34404 15.6897 5.34404 15.7997 5.28905L19.8297 3.27407C21.1283 2.62475 22.6562 3.56908 22.6562 5.021V18.0256C22.6562 18.7654 22.2383 19.4417 21.5766 19.7725L16.4985 22.3116C15.9486 22.5865 15.3014 22.5865 14.7515 22.3116L9.54969 19.7107C9.43972 19.6557 9.31028 19.6557 9.20031 19.7107L5.17034 21.7257C3.8717 22.375 2.34375 21.4306 2.34375 19.9787V6.97412C2.34375 6.23433 2.76172 5.55804 3.42341 5.22719L8.50154 2.68813ZM9.375 6.24985C9.80647 6.24985 10.1562 6.59963 10.1562 7.0311V15.6249C10.1562 16.0563 9.80647 16.4061 9.375 16.4061C8.94353 16.4061 8.59375 16.0563 8.59375 15.6249V7.0311C8.59375 6.59963 8.94353 6.24985 9.375 6.24985ZM16.4062 9.37485C16.4062 8.94338 16.0565 8.5936 15.625 8.5936C15.1935 8.5936 14.8438 8.94338 14.8438 9.37485V17.9686C14.8438 18.4001 15.1935 18.7499 15.625 18.7499C16.0565 18.7499 16.4062 18.4001 16.4062 17.9686V9.37485Z" fill="white"/>
    <path d="M34.2812 32.2812C34.2812 32.7127 33.9315 33.0625 33.5 33.0625C33.0685 33.0625 32.7188 32.7127 32.7188 32.2812C32.7188 31.8498 33.0685 31.5 33.5 31.5C33.9315 31.5 34.2812 31.8498 34.2812 32.2812Z" fill="white"/>
    <path d="M28.8125 35.4062C29.244 35.4062 29.5938 35.0565 29.5938 34.625C29.5938 34.1935 29.244 33.8438 28.8125 33.8438C28.381 33.8438 28.0312 34.1935 28.0312 34.625C28.0312 35.0565 28.381 35.4062 28.8125 35.4062Z" fill="white"/>
    <path d="M29.5938 36.9688C29.5938 37.4002 29.244 37.75 28.8125 37.75C28.381 37.75 28.0312 37.4002 28.0312 36.9688C28.0312 36.5373 28.381 36.1875 28.8125 36.1875C29.244 36.1875 29.5938 36.5373 29.5938 36.9688Z" fill="white"/>
    <path d="M31.1562 35.4062C31.5877 35.4062 31.9375 35.0565 31.9375 34.625C31.9375 34.1935 31.5877 33.8438 31.1562 33.8438C30.7248 33.8438 30.375 34.1935 30.375 34.625C30.375 35.0565 30.7248 35.4062 31.1562 35.4062Z" fill="white"/>
    <path d="M31.9375 36.9688C31.9375 37.4002 31.5877 37.75 31.1562 37.75C30.7248 37.75 30.375 37.4002 30.375 36.9688C30.375 36.5373 30.7248 36.1875 31.1562 36.1875C31.5877 36.1875 31.9375 36.5373 31.9375 36.9688Z" fill="white"/>
    <path d="M33.5 35.4062C33.9315 35.4062 34.2812 35.0565 34.2812 34.625C34.2812 34.1935 33.9315 33.8438 33.5 33.8438C33.0685 33.8438 32.7188 34.1935 32.7188 34.625C32.7188 35.0565 33.0685 35.4062 33.5 35.4062Z" fill="white"/>
    <path d="M34.2812 36.9688C34.2812 37.4002 33.9315 37.75 33.5 37.75C33.0685 37.75 32.7188 37.4002 32.7188 36.9688C32.7188 36.5373 33.0685 36.1875 33.5 36.1875C33.9315 36.1875 34.2812 36.5373 34.2812 36.9688Z" fill="white"/>
    <path d="M35.8438 35.4062C36.2752 35.4062 36.625 35.0565 36.625 34.625C36.625 34.1935 36.2752 33.8438 35.8438 33.8438C35.4123 33.8438 35.0625 34.1935 35.0625 34.625C35.0625 35.0565 35.4123 35.4062 35.8438 35.4062Z" fill="white"/>
    <path d="M36.625 36.9688C36.625 37.4002 36.2752 37.75 35.8438 37.75C35.4123 37.75 35.0625 37.4002 35.0625 36.9688C35.0625 36.5373 35.4123 36.1875 35.8438 36.1875C36.2752 36.1875 36.625 36.5373 36.625 36.9688Z" fill="white"/>
    <path d="M38.1875 35.4062C38.619 35.4062 38.9688 35.0565 38.9688 34.625C38.9688 34.1935 38.619 33.8438 38.1875 33.8438C37.756 33.8438 37.4062 34.1935 37.4062 34.625C37.4062 35.0565 37.756 35.4062 38.1875 35.4062Z" fill="white"/>
    <path d="M36.625 32.2812C36.625 32.7127 36.2752 33.0625 35.8438 33.0625C35.4123 33.0625 35.0625 32.7127 35.0625 32.2812C35.0625 31.8498 35.4123 31.5 35.8438 31.5C36.2752 31.5 36.625 31.8498 36.625 32.2812Z" fill="white"/>
    <path d="M38.1875 33.0625C38.619 33.0625 38.9688 32.7127 38.9688 32.2812C38.9688 31.8498 38.619 31.5 38.1875 31.5C37.756 31.5 37.4062 31.8498 37.4062 32.2812C37.4062 32.7127 37.756 33.0625 38.1875 33.0625Z" fill="white"/>
    <path fill-rule="evenodd" clip-rule="evenodd" d="M28.0312 21.3438C28.4627 21.3438 28.8125 21.6935 28.8125 22.125V23.6875H38.1875V22.125C38.1875 21.6935 38.5373 21.3438 38.9688 21.3438C39.4002 21.3438 39.75 21.6935 39.75 22.125V23.6875H40.5312C42.2571 23.6875 43.6562 25.0866 43.6562 26.8125V38.5312C43.6562 40.2571 42.2571 41.6562 40.5312 41.6562H26.4688C24.7429 41.6562 23.3438 40.2571 23.3438 38.5312V26.8125C23.3438 25.0866 24.7429 23.6875 26.4688 23.6875H27.25V22.125C27.25 21.6935 27.5998 21.3438 28.0312 21.3438ZM42.0938 30.7188C42.0938 29.8558 41.3942 29.1562 40.5312 29.1562H26.4688C25.6058 29.1562 24.9062 29.8558 24.9062 30.7188V38.5312C24.9062 39.3942 25.6058 40.0938 26.4688 40.0938H40.5312C41.3942 40.0938 42.0938 39.3942 42.0938 38.5312V30.7188Z" fill="white"/>
</svg>
