<svg width="48" height="46" viewBox="0 0 48 46" fill="none" xmlns="http://www.w3.org/2000/svg">
    <path fill-rule="evenodd" clip-rule="evenodd" d="M31.5015 23.6881C32.0514 23.4132 32.6986 23.4132 33.2485 23.6881L38.4503 26.2891C38.5603 26.344 38.6897 26.344 38.7997 26.2891L42.8297 24.2741C44.1283 23.6248 45.6562 24.5691 45.6562 26.021V39.0256C45.6562 39.7654 45.2383 40.4417 44.5766 40.7725L39.4985 43.3116C38.9486 43.5865 38.3014 43.5865 37.7515 43.3116L32.5497 40.7107C32.4397 40.6557 32.3103 40.6557 32.2003 40.7107L28.1703 42.7257C26.8717 43.375 25.3438 42.4306 25.3438 40.9787V27.9741C25.3438 27.2343 25.7617 26.558 26.4234 26.2272L31.5015 23.6881ZM32.375 27.2499C32.8065 27.2499 33.1562 27.5996 33.1562 28.0311V36.6249C33.1562 37.0563 32.8065 37.4061 32.375 37.4061C31.9435 37.4061 31.5938 37.0563 31.5938 36.6249V28.0311C31.5938 27.5996 31.9435 27.2499 32.375 27.2499ZM39.4062 30.3749C39.4062 29.9434 39.0565 29.5936 38.625 29.5936C38.1935 29.5936 37.8438 29.9434 37.8438 30.3749V38.9686C37.8438 39.4001 38.1935 39.7499 38.625 39.7499C39.0565 39.7499 39.4062 39.4001 39.4062 38.9686V30.3749Z" fill="white"/>
    <line x1="13" y1="32.6776" x2="30.6777" y2="14.9999" stroke="white" stroke-width="2" stroke-linecap="round"/>
    <path fill-rule="evenodd" clip-rule="evenodd" d="M12.0206 23.2823C12.052 23.3006 12.0768 23.3146 12.0943 23.3245L12.1234 23.3407C12.3555 23.4682 12.6435 23.4672 12.8759 23.3411L12.9057 23.3245C12.9232 23.3146 12.948 23.3006 12.9794 23.2823C13.0424 23.2459 13.1323 23.1927 13.2453 23.1231C13.4713 22.9839 13.7904 22.7787 14.1715 22.5095C14.9324 21.972 15.9477 21.1744 16.9652 20.1326C18.9903 18.0592 21.0938 14.9439 21.0938 10.9375C21.0938 6.1913 17.2462 2.34375 12.5 2.34375C7.7538 2.34375 3.90625 6.1913 3.90625 10.9375C3.90625 14.9439 6.00971 18.0592 8.03485 20.1326C9.05235 21.1744 10.0676 21.972 10.8285 22.5095C11.2096 22.7787 11.5287 22.9839 11.7547 23.1231C11.8677 23.1927 11.9576 23.2459 12.0206 23.2823ZM12.5 14.0625C14.2259 14.0625 15.625 12.6634 15.625 10.9375C15.625 9.21161 14.2259 7.8125 12.5 7.8125C10.7741 7.8125 9.375 9.21161 9.375 10.9375C9.375 12.6634 10.7741 14.0625 12.5 14.0625Z" fill="white"/>
</svg>