<svg width="50" height="43" viewBox="0 0 50 43" fill="none" xmlns="http://www.w3.org/2000/svg">
<path fill-rule="evenodd" clip-rule="evenodd" d="M33.5015 20.6881C34.0514 20.4132 34.6986 20.4132 35.2485 20.6881L40.4503 23.2891C40.5603 23.344 40.6897 23.344 40.7997 23.2891L44.8297 21.2741C46.1283 20.6248 47.6562 21.5691 47.6562 23.021V36.0256C47.6562 36.7654 47.2383 37.4417 46.5766 37.7725L41.4985 40.3116C40.9486 40.5865 40.3014 40.5865 39.7515 40.3116L34.5497 37.7107C34.4397 37.6557 34.3103 37.6557 34.2003 37.7107L30.1703 39.7257C28.8717 40.375 27.3438 39.4306 27.3438 37.9787V24.9741C27.3438 24.2343 27.7617 23.558 28.4234 23.2272L33.5015 20.6881ZM34.375 24.2499C34.8065 24.2499 35.1562 24.5996 35.1562 25.0311V33.6249C35.1562 34.0563 34.8065 34.4061 34.375 34.4061C33.9435 34.4061 33.5938 34.0563 33.5938 33.6249V25.0311C33.5938 24.5996 33.9435 24.2499 34.375 24.2499ZM41.4062 27.3749C41.4062 26.9434 41.0565 26.5936 40.625 26.5936C40.1935 26.5936 39.8438 26.9434 39.8438 27.3749V35.9686C39.8438 36.4001 40.1935 36.7499 40.625 36.7499C41.0565 36.7499 41.4062 36.4001 41.4062 35.9686V27.3749Z" fill="white"/>
<path fill-rule="evenodd" clip-rule="evenodd" d="M12.5 2.34375C6.89086 2.34375 2.34375 6.89086 2.34375 12.5C2.34375 18.1091 6.89086 22.6562 12.5 22.6562C18.1091 22.6562 22.6562 18.1091 22.6562 12.5C22.6562 6.89086 18.1091 2.34375 12.5 2.34375ZM13.2812 6.25C13.2812 5.81853 12.9315 5.46875 12.5 5.46875C12.0685 5.46875 11.7188 5.81853 11.7188 6.25V12.5C11.7188 12.9315 12.0685 13.2812 12.5 13.2812H17.1875C17.619 13.2812 17.9688 12.9315 17.9688 12.5C17.9688 12.0685 17.619 11.7188 17.1875 11.7188H13.2812V6.25Z" fill="white"/>
<line x1="15" y1="29.6776" x2="32.6777" y2="11.9999" stroke="white" stroke-width="2" stroke-linecap="round"/>
</svg>
