<svg width="50" height="48" viewBox="0 0 50 48" fill="none" xmlns="http://www.w3.org/2000/svg">
    <path fill-rule="evenodd" clip-rule="evenodd" d="M12.0206 23.2823C12.052 23.3006 12.0768 23.3146 12.0943 23.3245L12.1234 23.3407C12.3555 23.4682 12.6435 23.4672 12.8759 23.3411L12.9057 23.3245C12.9232 23.3146 12.948 23.3006 12.9794 23.2823C13.0424 23.2459 13.1323 23.1927 13.2453 23.1231C13.4713 22.9839 13.7904 22.7787 14.1715 22.5095C14.9324 21.972 15.9477 21.1744 16.9652 20.1326C18.9903 18.0592 21.0938 14.9439 21.0938 10.9375C21.0938 6.1913 17.2462 2.34375 12.5 2.34375C7.7538 2.34375 3.90625 6.1913 3.90625 10.9375C3.90625 14.9439 6.00971 18.0592 8.03485 20.1326C9.05235 21.1744 10.0676 21.972 10.8285 22.5095C11.2096 22.7787 11.5287 22.9839 11.7547 23.1231C11.8677 23.1927 11.9576 23.2459 12.0206 23.2823ZM12.5 14.0625C14.2259 14.0625 15.625 12.6634 15.625 10.9375C15.625 9.21161 14.2259 7.8125 12.5 7.8125C10.7741 7.8125 9.375 9.21161 9.375 10.9375C9.375 12.6634 10.7741 14.0625 12.5 14.0625Z" fill="white"/>
    <path fill-rule="evenodd" clip-rule="evenodd" d="M37.0206 46.2823C37.052 46.3006 37.0768 46.3146 37.0943 46.3245L37.1234 46.3407C37.3555 46.4682 37.6435 46.4672 37.8759 46.3411L37.9057 46.3245C37.9232 46.3146 37.948 46.3006 37.9794 46.2823C38.0424 46.2459 38.1323 46.1927 38.2453 46.1231C38.4713 45.9839 38.7904 45.7787 39.1715 45.5095C39.9324 44.972 40.9477 44.1744 41.9652 43.1326C43.9903 41.0592 46.0938 37.9439 46.0938 33.9375C46.0938 29.1913 42.2462 25.3438 37.5 25.3438C32.7538 25.3438 28.9062 29.1913 28.9062 33.9375C28.9062 37.9439 31.0097 41.0592 33.0348 43.1326C34.0523 44.1744 35.0676 44.972 35.8285 45.5095C36.2096 45.7787 36.5287 45.9839 36.7547 46.1231C36.8677 46.1927 36.9576 46.2459 37.0206 46.2823ZM37.5 37.0625C39.2259 37.0625 40.625 35.6634 40.625 33.9375C40.625 32.2116 39.2259 30.8125 37.5 30.8125C35.7741 30.8125 34.375 32.2116 34.375 33.9375C34.375 35.6634 35.7741 37.0625 37.5 37.0625Z" fill="white"/>
    <path d="M38 24.0012C32.6667 -4.42896 12 54.4269 12 24.0012" stroke="white"/>
</svg>